<mxfile host="app.diagrams.net" modified="2024-01-03T19:15:12.565Z" agent="Mozilla/5.0 (X11; Linux x86_64; rv:109.0) Gecko/20100101 Firefox/115.0" etag="DtVQVuI-RrE0CXsTHcYv" version="22.1.16" type="device">
  <diagram name="Page-1" id="GIOiO_XL50JcRZLEiqmb">
    <mxGraphModel dx="4924" dy="2457" grid="1" gridSize="3" guides="0" tooltips="1" connect="0" arrows="0" fold="1" page="1" pageScale="1" pageWidth="827" pageHeight="1169" background="#FFFFFF" math="0" shadow="0">
      <root>
        <mxCell id="0" />
        <mxCell id="1" parent="0" />
        <mxCell id="k1cbnF_5yYTtlvTHfuMY-3" value="" style="rounded=0;whiteSpace=wrap;html=1;fillColor=#BABABA;strokeWidth=2;strokeColor=#000000;opacity=20;dashed=1;" parent="1" vertex="1">
          <mxGeometry x="-231" y="1050" width="2961" height="1218" as="geometry" />
        </mxCell>
        <mxCell id="k1cbnF_5yYTtlvTHfuMY-44" value="&amp;nbsp;" style="shape=ext;double=1;rounded=0;whiteSpace=wrap;html=1;fillColor=none;" parent="1" vertex="1">
          <mxGeometry x="-75" y="1077" width="2772" height="1164" as="geometry" />
        </mxCell>
        <mxCell id="GuCMF0NOM9EzWncVumZ_-5" value="" style="endArrow=none;html=1;rounded=0;strokeWidth=2;strokeColor=#FFCC99;" edge="1" parent="1">
          <mxGeometry width="50" height="50" relative="1" as="geometry">
            <mxPoint x="834" y="1767" as="sourcePoint" />
            <mxPoint x="834" y="1443" as="targetPoint" />
          </mxGeometry>
        </mxCell>
        <mxCell id="k1cbnF_5yYTtlvTHfuMY-45" value="&amp;nbsp;" style="shape=ext;double=1;rounded=0;whiteSpace=wrap;html=1;fillColor=none;opacity=50;strokeColor=#000000;gradientColor=none;strokeWidth=6;" parent="1" vertex="1">
          <mxGeometry x="-729" y="339" width="3957" height="1977" as="geometry" />
        </mxCell>
        <mxCell id="HHthe8FDpFu81GJ2ntWf-72" value="&amp;nbsp;" style="rounded=0;whiteSpace=wrap;html=1;dashed=1;strokeWidth=2;fillColor=#BABABA;fillStyle=solid;opacity=20;" parent="1" vertex="1">
          <mxGeometry x="572" y="747" width="615" height="234" as="geometry" />
        </mxCell>
        <mxCell id="Nq3vy76Jur3wy4Glu-vh-1" value="" style="rounded=0;whiteSpace=wrap;html=1;fillColor=none;strokeColor=#FF9999;strokeWidth=2;fontColor=#000000;" parent="1" vertex="1">
          <mxGeometry x="180" y="1576" width="200" height="140" as="geometry" />
        </mxCell>
        <mxCell id="Nq3vy76Jur3wy4Glu-vh-2" value="&lt;font style=&quot;font-size: 8px;&quot;&gt;instruction(31:0)&lt;br&gt;&lt;/font&gt;" style="text;html=1;strokeColor=none;fillColor=none;align=center;verticalAlign=middle;whiteSpace=wrap;rounded=0;fontColor=#000000;" parent="1" vertex="1">
          <mxGeometry x="181" y="1606" width="60" height="20" as="geometry" />
        </mxCell>
        <mxCell id="Nq3vy76Jur3wy4Glu-vh-3" value="DECODER" style="text;html=1;strokeColor=none;fillColor=none;align=center;verticalAlign=middle;whiteSpace=wrap;rounded=0;fontColor=#000000;" parent="1" vertex="1">
          <mxGeometry x="180" y="1581" width="200" height="20" as="geometry" />
        </mxCell>
        <mxCell id="Nq3vy76Jur3wy4Glu-vh-4" value="&lt;div style=&quot;font-size: 8px;&quot; align=&quot;right&quot;&gt;&lt;div style=&quot;font-size: 8px;&quot; align=&quot;right&quot;&gt;&lt;font style=&quot;font-size: 8px;&quot;&gt;imm(31:0)&lt;/font&gt;&lt;/div&gt;&lt;font style=&quot;font-size: 8px;&quot;&gt;&lt;/font&gt;&lt;/div&gt;&lt;div style=&quot;font-size: 8px;&quot; align=&quot;right&quot;&gt;&lt;font style=&quot;font-size: 8px;&quot;&gt;rd_addr(4:0)&lt;/font&gt;&lt;/div&gt;&lt;div style=&quot;font-size: 8px;&quot; align=&quot;right&quot;&gt;&lt;font style=&quot;font-size: 8px;&quot;&gt;rs1_addr(4:0)&lt;/font&gt;&lt;/div&gt;&lt;div style=&quot;font-size: 8px;&quot; align=&quot;right&quot;&gt;&lt;font style=&quot;font-size: 8px;&quot;&gt;rs2_addr(4:0)&lt;/font&gt;&lt;/div&gt;&lt;div style=&quot;font-size: 8px;&quot; align=&quot;right&quot;&gt;&lt;div style=&quot;font-size: 8px;&quot; align=&quot;right&quot;&gt;&lt;font style=&quot;font-size: 8px;&quot;&gt;opcode(6:0)&lt;/font&gt;&lt;/div&gt;&lt;div style=&quot;font-size: 8px;&quot; align=&quot;right&quot;&gt;&lt;font style=&quot;font-size: 8px;&quot;&gt;func3(2:0)&lt;/font&gt;&lt;/div&gt;&lt;font style=&quot;font-size: 8px;&quot;&gt;func7(6:0)&lt;/font&gt;&lt;font style=&quot;font-size: 8px;&quot;&gt;&lt;/font&gt;&lt;/div&gt;" style="text;html=1;strokeColor=none;fillColor=none;align=right;verticalAlign=middle;whiteSpace=wrap;rounded=0;fontColor=#000000;" parent="1" vertex="1">
          <mxGeometry x="329" y="1606" width="50" height="70" as="geometry" />
        </mxCell>
        <mxCell id="Nq3vy76Jur3wy4Glu-vh-5" value="" style="rounded=0;whiteSpace=wrap;html=1;fillColor=none;strokeColor=#ffcc99;strokeWidth=2;fontColor=#000000;" parent="1" vertex="1">
          <mxGeometry x="580" y="1736" width="200" height="140" as="geometry" />
        </mxCell>
        <mxCell id="Nq3vy76Jur3wy4Glu-vh-6" value="&lt;div style=&quot;font-size: 8px;&quot; align=&quot;left&quot;&gt;&lt;font style=&quot;font-size: 8px;&quot;&gt;opcode(6:0)&lt;/font&gt;&lt;/div&gt;&lt;div style=&quot;font-size: 8px;&quot; align=&quot;left&quot;&gt;&lt;font style=&quot;font-size: 8px;&quot;&gt;func3(2:0)&lt;/font&gt;&lt;/div&gt;&lt;div style=&quot;font-size: 8px;&quot; align=&quot;left&quot;&gt;&lt;font style=&quot;font-size: 8px;&quot;&gt;func7(6:0)&lt;/font&gt;&lt;/div&gt;&lt;div style=&quot;font-size: 8px;&quot; align=&quot;left&quot;&gt;&lt;font style=&quot;font-size: 8px;&quot;&gt;branch_result&lt;br&gt;&lt;/font&gt;&lt;/div&gt;" style="text;html=1;strokeColor=none;fillColor=none;align=left;verticalAlign=middle;whiteSpace=wrap;rounded=0;fontColor=#000000;" parent="1" vertex="1">
          <mxGeometry x="581" y="1766" width="55" height="43" as="geometry" />
        </mxCell>
        <mxCell id="Nq3vy76Jur3wy4Glu-vh-7" value="CONTROL" style="text;html=1;strokeColor=none;fillColor=none;align=center;verticalAlign=middle;whiteSpace=wrap;rounded=0;fontColor=#000000;" parent="1" vertex="1">
          <mxGeometry x="580" y="1741" width="200" height="20" as="geometry" />
        </mxCell>
        <mxCell id="Nq3vy76Jur3wy4Glu-vh-8" value="&lt;div style=&quot;font-size: 8px;&quot; align=&quot;right&quot;&gt;&lt;font style=&quot;font-size: 8px;&quot;&gt;pc_ctrl(1:0)&lt;/font&gt;&lt;/div&gt;&lt;div style=&quot;font-size: 8px;&quot; align=&quot;right&quot;&gt;&lt;font style=&quot;font-size: 8px;&quot;&gt;inst_addr_ctrl&lt;br&gt;&lt;/font&gt;&lt;/div&gt;&lt;div style=&quot;font-size: 8px;&quot; align=&quot;right&quot;&gt;&lt;font style=&quot;font-size: 8px;&quot;&gt;alu_mux_1_ctrl&lt;/font&gt;&lt;/div&gt;&lt;div style=&quot;font-size: 8px;&quot; align=&quot;right&quot;&gt;&lt;div style=&quot;font-size: 8px;&quot; align=&quot;right&quot;&gt;&lt;div style=&quot;font-size: 8px;&quot; align=&quot;right&quot;&gt;&lt;font style=&quot;font-size: 8px;&quot;&gt;alu_control(4:0)&lt;/font&gt;&lt;font style=&quot;font-size: 8px;&quot;&gt;&lt;br&gt;&lt;/font&gt;&lt;/div&gt;&lt;/div&gt;&lt;font style=&quot;font-size: 8px;&quot;&gt;&lt;/font&gt;&lt;/div&gt;&lt;div style=&quot;font-size: 8px;&quot; align=&quot;right&quot;&gt;&lt;font style=&quot;font-size: 8px;&quot;&gt;alu_mux_2_ctrl&lt;/font&gt;&lt;/div&gt;&lt;div style=&quot;font-size: 8px;&quot; align=&quot;right&quot;&gt;&lt;div style=&quot;font-size: 8px;&quot; align=&quot;right&quot;&gt;&lt;font style=&quot;font-size: 8px;&quot;&gt;reg_file_wr_ctrl&lt;/font&gt;&lt;/div&gt;&lt;div style=&quot;font-size: 8px;&quot; align=&quot;right&quot;&gt;&lt;font style=&quot;font-size: 8px;&quot;&gt;reg_file_inst_ctrl(1:0)&lt;/font&gt;&lt;/div&gt;&lt;div style=&quot;font-size: 8px;&quot; align=&quot;right&quot;&gt;&lt;font style=&quot;font-size: 8px;&quot;&gt;ram_management_ctrl(3:0)&lt;br&gt;&lt;/font&gt;&lt;/div&gt;&lt;div style=&quot;font-size: 8px;&quot; align=&quot;right&quot;&gt;&lt;div style=&quot;font-size: 8px;&quot; align=&quot;right&quot;&gt;&lt;font style=&quot;font-size: 8px;&quot;&gt;branch_ctrl(2:0)&lt;/font&gt;&lt;/div&gt;&lt;/div&gt;&lt;/div&gt;" style="text;html=1;strokeColor=none;fillColor=none;align=right;verticalAlign=middle;whiteSpace=wrap;rounded=0;fontColor=#000000;" parent="1" vertex="1">
          <mxGeometry x="678" y="1761" width="101" height="84" as="geometry" />
        </mxCell>
        <mxCell id="Nq3vy76Jur3wy4Glu-vh-9" value="" style="rounded=0;whiteSpace=wrap;html=1;fillColor=none;strokeColor=#ffff66;strokeWidth=2;fontColor=#000000;" parent="1" vertex="1">
          <mxGeometry x="1300" y="1616" width="200" height="140" as="geometry" />
        </mxCell>
        <mxCell id="Nq3vy76Jur3wy4Glu-vh-10" value="&lt;div style=&quot;font-size: 8px;&quot; align=&quot;left&quot;&gt;&lt;font style=&quot;font-size: 8px;&quot;&gt;clk&lt;/font&gt;&lt;/div&gt;&lt;div style=&quot;font-size: 8px;&quot; align=&quot;left&quot;&gt;&lt;font style=&quot;font-size: 8px;&quot;&gt;reg_file_wr_ctrl&lt;/font&gt;&lt;/div&gt;&lt;div style=&quot;font-size: 8px;&quot; align=&quot;left&quot;&gt;&lt;div style=&quot;font-size: 8px;&quot; align=&quot;left&quot;&gt;&lt;font style=&quot;font-size: 8px;&quot;&gt;reg_file_inst_ctrl(1:0)&lt;/font&gt;&lt;/div&gt;&lt;/div&gt;&lt;div style=&quot;font-size: 8px;&quot; align=&quot;left&quot;&gt;&lt;div style=&quot;font-size: 8px;&quot; align=&quot;left&quot;&gt;&lt;font style=&quot;font-size: 8px;&quot;&gt;alu_result(31:0)&lt;/font&gt;&lt;font style=&quot;font-size: 8px;&quot;&gt;&lt;/font&gt;&lt;/div&gt;&lt;div style=&quot;font-size: 8px;&quot; align=&quot;left&quot;&gt;&lt;font style=&quot;font-size: 8px;&quot;&gt;pc_addr(31:0)&lt;/font&gt;&lt;font style=&quot;font-size: 8px;&quot;&gt;&lt;/font&gt;&lt;/div&gt;&lt;div style=&quot;font-size: 8px;&quot; align=&quot;left&quot;&gt;&lt;font style=&quot;font-size: 8px;&quot;&gt;rd_addr(4:0)&lt;/font&gt;&lt;/div&gt;&lt;font style=&quot;font-size: 8px;&quot;&gt;&lt;/font&gt;&lt;/div&gt;&lt;div style=&quot;font-size: 8px;&quot; align=&quot;left&quot;&gt;&lt;font style=&quot;font-size: 8px;&quot;&gt;rs1_addr(4:0)&lt;/font&gt;&lt;/div&gt;&lt;div style=&quot;font-size: 8px;&quot; align=&quot;left&quot;&gt;&lt;font style=&quot;font-size: 8px;&quot;&gt;rs2_addr(4:0)&lt;/font&gt;&lt;/div&gt;&lt;div style=&quot;font-size: 8px;&quot; align=&quot;left&quot;&gt;&lt;font style=&quot;font-size: 8px;&quot;&gt;rd_data(31:0)&lt;/font&gt;&lt;/div&gt;" style="text;html=1;strokeColor=none;fillColor=none;align=left;verticalAlign=middle;whiteSpace=wrap;rounded=0;fontColor=#000000;" parent="1" vertex="1">
          <mxGeometry x="1301" y="1646" width="82" height="88" as="geometry" />
        </mxCell>
        <mxCell id="Nq3vy76Jur3wy4Glu-vh-11" value="REG_FILE" style="text;html=1;strokeColor=none;fillColor=none;align=center;verticalAlign=middle;whiteSpace=wrap;rounded=0;fontColor=#000000;" parent="1" vertex="1">
          <mxGeometry x="1300" y="1620" width="200" height="20" as="geometry" />
        </mxCell>
        <mxCell id="Nq3vy76Jur3wy4Glu-vh-12" value="&lt;div style=&quot;font-size: 8px;&quot; align=&quot;right&quot;&gt;&lt;font style=&quot;font-size: 8px;&quot;&gt;rs1_data(31:0)&lt;/font&gt;&lt;/div&gt;&lt;div style=&quot;font-size: 8px;&quot; align=&quot;right&quot;&gt;&lt;font style=&quot;font-size: 8px;&quot;&gt;rs2_data(31:0)&lt;br&gt;&lt;/font&gt;&lt;/div&gt;" style="text;html=1;strokeColor=none;fillColor=none;align=right;verticalAlign=middle;whiteSpace=wrap;rounded=0;fontColor=#000000;" parent="1" vertex="1">
          <mxGeometry x="1439" y="1646" width="60" height="20" as="geometry" />
        </mxCell>
        <mxCell id="Nq3vy76Jur3wy4Glu-vh-13" value="" style="rounded=0;whiteSpace=wrap;html=1;fillColor=none;strokeColor=#99ff33;strokeWidth=2;fontColor=#000000;" parent="1" vertex="1">
          <mxGeometry x="1700" y="1396" width="200" height="140" as="geometry" />
        </mxCell>
        <mxCell id="Nq3vy76Jur3wy4Glu-vh-14" value="&lt;div style=&quot;font-size: 8px;&quot; align=&quot;left&quot;&gt;&lt;font style=&quot;font-size: 8px;&quot;&gt;pc_addr(31:0)&lt;/font&gt;&lt;font style=&quot;font-size: 8px;&quot;&gt;&lt;/font&gt;&lt;/div&gt;&lt;div style=&quot;font-size: 8px;&quot; align=&quot;left&quot;&gt;&lt;div style=&quot;font-size: 8px;&quot; align=&quot;left&quot;&gt;&lt;font style=&quot;font-size: 8px;&quot;&gt;alu_mux_1_ctrl&lt;/font&gt;&lt;/div&gt;&lt;div style=&quot;font-size: 8px;&quot; align=&quot;left&quot;&gt;&lt;font style=&quot;font-size: 8px;&quot;&gt;rs1_data(31:0)&lt;/font&gt;&lt;font style=&quot;font-size: 8px;&quot;&gt;&lt;/font&gt;&lt;/div&gt;&lt;font style=&quot;font-size: 8px;&quot;&gt;&lt;/font&gt;&lt;/div&gt;" style="text;html=1;strokeColor=none;fillColor=none;align=left;verticalAlign=middle;whiteSpace=wrap;rounded=0;fontColor=#000000;" parent="1" vertex="1">
          <mxGeometry x="1701" y="1426" width="60" height="30" as="geometry" />
        </mxCell>
        <mxCell id="Nq3vy76Jur3wy4Glu-vh-15" value="MUX1" style="text;html=1;strokeColor=none;fillColor=none;align=center;verticalAlign=middle;whiteSpace=wrap;rounded=0;fontColor=#000000;" parent="1" vertex="1">
          <mxGeometry x="1700" y="1400" width="200" height="20" as="geometry" />
        </mxCell>
        <mxCell id="Nq3vy76Jur3wy4Glu-vh-16" value="&lt;div style=&quot;font-size: 8px;&quot; align=&quot;right&quot;&gt;&lt;font style=&quot;font-size: 8px;&quot;&gt;alu_operand_1(31:0)&lt;/font&gt;&lt;/div&gt;" style="text;html=1;strokeColor=none;fillColor=none;align=right;verticalAlign=middle;whiteSpace=wrap;rounded=0;fontColor=#000000;" parent="1" vertex="1">
          <mxGeometry x="1819" y="1426" width="80" height="20" as="geometry" />
        </mxCell>
        <mxCell id="Nq3vy76Jur3wy4Glu-vh-17" value="" style="rounded=0;whiteSpace=wrap;html=1;fillColor=none;strokeColor=#00cccc;strokeWidth=2;fontColor=#000000;" parent="1" vertex="1">
          <mxGeometry x="1700" y="1616" width="200" height="140" as="geometry" />
        </mxCell>
        <mxCell id="Nq3vy76Jur3wy4Glu-vh-18" value="&lt;div style=&quot;font-size: 8px;&quot; align=&quot;left&quot;&gt;&lt;font style=&quot;font-size: 8px;&quot;&gt;alu_mux_2_ctrl&lt;/font&gt;&lt;/div&gt;&lt;div style=&quot;font-size: 8px;&quot; align=&quot;left&quot;&gt;&lt;font style=&quot;font-size: 8px;&quot;&gt;rs2_data(31:0)&lt;/font&gt;&lt;/div&gt;&lt;div style=&quot;font-size: 8px;&quot; align=&quot;left&quot;&gt;&lt;font style=&quot;font-size: 8px;&quot;&gt;imm(31:0)&lt;br&gt;&lt;/font&gt;&lt;/div&gt;" style="text;html=1;strokeColor=none;fillColor=none;align=left;verticalAlign=middle;whiteSpace=wrap;rounded=0;fontColor=#000000;" parent="1" vertex="1">
          <mxGeometry x="1701" y="1646" width="60" height="30" as="geometry" />
        </mxCell>
        <mxCell id="Nq3vy76Jur3wy4Glu-vh-19" value="MUX2" style="text;html=1;strokeColor=none;fillColor=none;align=center;verticalAlign=middle;whiteSpace=wrap;rounded=0;fontColor=#000000;" parent="1" vertex="1">
          <mxGeometry x="1700" y="1620" width="200" height="20" as="geometry" />
        </mxCell>
        <mxCell id="Nq3vy76Jur3wy4Glu-vh-20" value="&lt;div style=&quot;font-size: 8px;&quot; align=&quot;right&quot;&gt;&lt;font style=&quot;font-size: 8px;&quot;&gt;alu_operand_2(31:0)&lt;/font&gt;&lt;/div&gt;" style="text;html=1;strokeColor=none;fillColor=none;align=right;verticalAlign=middle;whiteSpace=wrap;rounded=0;fontColor=#000000;" parent="1" vertex="1">
          <mxGeometry x="1819" y="1646" width="80" height="10" as="geometry" />
        </mxCell>
        <mxCell id="Nq3vy76Jur3wy4Glu-vh-21" value="&amp;nbsp;" style="rounded=0;whiteSpace=wrap;html=1;fillColor=none;strokeColor=#007fff;strokeWidth=2;fontColor=#000000;" parent="1" vertex="1">
          <mxGeometry x="2100" y="1506" width="200" height="140" as="geometry" />
        </mxCell>
        <mxCell id="Nq3vy76Jur3wy4Glu-vh-22" value="&lt;div style=&quot;font-size: 8px;&quot; align=&quot;left&quot;&gt;&lt;font style=&quot;font-size: 8px;&quot;&gt;alu_operand_1(31:0)&lt;/font&gt;&lt;/div&gt;&lt;div style=&quot;font-size: 8px;&quot; align=&quot;left&quot;&gt;&lt;font style=&quot;font-size: 8px;&quot;&gt;alu_control(4:0)&lt;/font&gt;&lt;/div&gt;&lt;div style=&quot;font-size: 8px;&quot; align=&quot;left&quot;&gt;&lt;div style=&quot;font-size: 8px;&quot; align=&quot;left&quot;&gt;&lt;font style=&quot;font-size: 8px;&quot;&gt;alu_operand_2(31:0)&lt;/font&gt;&lt;/div&gt;&lt;font style=&quot;font-size: 8px;&quot;&gt;&lt;/font&gt;&lt;/div&gt;" style="text;html=1;strokeColor=none;fillColor=none;align=left;verticalAlign=middle;whiteSpace=wrap;rounded=0;fontColor=#000000;" parent="1" vertex="1">
          <mxGeometry x="2101" y="1536" width="80" height="30" as="geometry" />
        </mxCell>
        <mxCell id="Nq3vy76Jur3wy4Glu-vh-23" value="ALU" style="text;html=1;strokeColor=none;fillColor=none;align=center;verticalAlign=middle;whiteSpace=wrap;rounded=0;fontColor=#000000;" parent="1" vertex="1">
          <mxGeometry x="2100" y="1510" width="200" height="20" as="geometry" />
        </mxCell>
        <mxCell id="Nq3vy76Jur3wy4Glu-vh-24" value="&lt;div style=&quot;font-size: 8px;&quot; align=&quot;right&quot;&gt;&lt;font style=&quot;font-size: 8px;&quot;&gt;alu_result(31:0)&lt;/font&gt;&lt;/div&gt;" style="text;html=1;strokeColor=none;fillColor=none;align=right;verticalAlign=middle;whiteSpace=wrap;rounded=0;fontColor=#000000;" parent="1" vertex="1">
          <mxGeometry x="2240" y="1536" width="59" height="20" as="geometry" />
        </mxCell>
        <mxCell id="Nq3vy76Jur3wy4Glu-vh-25" value="" style="rounded=0;whiteSpace=wrap;html=1;fillColor=none;strokeColor=#ff3399;strokeWidth=2;fontColor=#000000;" parent="1" vertex="1">
          <mxGeometry x="1290" y="1207" width="200" height="140" as="geometry" />
        </mxCell>
        <mxCell id="Nq3vy76Jur3wy4Glu-vh-26" value="&lt;div style=&quot;font-size: 8px;&quot; align=&quot;left&quot;&gt;&lt;font style=&quot;font-size: 8px;&quot;&gt;clk&lt;br&gt;&lt;/font&gt;&lt;/div&gt;&lt;div style=&quot;font-size: 8px;&quot; align=&quot;left&quot;&gt;&lt;font style=&quot;font-size: 8px;&quot;&gt;instruction_addr(31:0)&lt;/font&gt;&lt;/div&gt;" style="text;html=1;strokeColor=none;fillColor=none;align=left;verticalAlign=middle;whiteSpace=wrap;rounded=0;fontColor=#000000;" parent="1" vertex="1">
          <mxGeometry x="1291" y="1233" width="80" height="20" as="geometry" />
        </mxCell>
        <mxCell id="Nq3vy76Jur3wy4Glu-vh-27" value="INSTRUCTION_MEMORY" style="text;html=1;strokeColor=none;fillColor=none;align=center;verticalAlign=middle;whiteSpace=wrap;rounded=0;fontColor=#000000;" parent="1" vertex="1">
          <mxGeometry x="1290" y="1211" width="200" height="20" as="geometry" />
        </mxCell>
        <mxCell id="Nq3vy76Jur3wy4Glu-vh-28" value="&lt;div style=&quot;font-size: 8px;&quot; align=&quot;right&quot;&gt;&lt;font style=&quot;font-size: 8px;&quot;&gt;instruction(31:0)&lt;/font&gt;&lt;/div&gt;" style="text;html=1;strokeColor=none;fillColor=none;align=right;verticalAlign=middle;whiteSpace=wrap;rounded=0;fontColor=#000000;" parent="1" vertex="1">
          <mxGeometry x="1429" y="1237" width="60" height="20" as="geometry" />
        </mxCell>
        <mxCell id="WBGVOQ_4j9fBxjr6cf3C-39" value="" style="rounded=0;whiteSpace=wrap;html=1;fillColor=none;strokeColor=#666600;strokeWidth=2;fontColor=#000000;" parent="1" vertex="1">
          <mxGeometry x="900" y="1391" width="200" height="140" as="geometry" />
        </mxCell>
        <mxCell id="WBGVOQ_4j9fBxjr6cf3C-40" value="&lt;div style=&quot;font-size: 8px;&quot; align=&quot;left&quot;&gt;&lt;font style=&quot;font-size: 8px;&quot;&gt;clk&lt;/font&gt;&lt;/div&gt;&lt;div style=&quot;font-size: 8px;&quot; align=&quot;left&quot;&gt;&lt;font style=&quot;font-size: 8px;&quot;&gt;alu_result(31:0)&lt;/font&gt;&lt;/div&gt;&lt;div style=&quot;font-size: 8px;&quot; align=&quot;left&quot;&gt;&lt;font style=&quot;font-size: 8px;&quot;&gt;pc_ctrl(1:0)&lt;/font&gt;&lt;/div&gt;&lt;div style=&quot;font-size: 8px;&quot; align=&quot;left&quot;&gt;&lt;font style=&quot;font-size: 8px;&quot;&gt;inst_addr_ctrl&lt;br&gt;&lt;/font&gt;&lt;/div&gt;" style="text;html=1;strokeColor=none;fillColor=none;align=left;verticalAlign=middle;whiteSpace=wrap;rounded=0;fontColor=#000000;" parent="1" vertex="1">
          <mxGeometry x="901" y="1418" width="59" height="40" as="geometry" />
        </mxCell>
        <mxCell id="WBGVOQ_4j9fBxjr6cf3C-41" value="PROGRAM_COUNTER" style="text;html=1;strokeColor=none;fillColor=none;align=center;verticalAlign=middle;whiteSpace=wrap;rounded=0;fontColor=#000000;" parent="1" vertex="1">
          <mxGeometry x="900" y="1395" width="200" height="20" as="geometry" />
        </mxCell>
        <mxCell id="WBGVOQ_4j9fBxjr6cf3C-42" value="&lt;div style=&quot;font-size: 8px;&quot; align=&quot;right&quot;&gt;&lt;font style=&quot;font-size: 8px;&quot;&gt;instruction_addr(31:0)&lt;/font&gt;&lt;/div&gt;&lt;div style=&quot;font-size: 8px;&quot; align=&quot;right&quot;&gt;&lt;font style=&quot;font-size: 8px;&quot;&gt;pc_addr(31:0)&lt;br&gt;&lt;/font&gt;&lt;/div&gt;" style="text;html=1;strokeColor=none;fillColor=none;align=right;verticalAlign=middle;whiteSpace=wrap;rounded=0;fontColor=#000000;" parent="1" vertex="1">
          <mxGeometry x="1018" y="1418" width="82" height="20" as="geometry" />
        </mxCell>
        <mxCell id="HfboubUgEW3dS0zUGy0d-5" value="" style="rounded=0;whiteSpace=wrap;html=1;fillColor=none;strokeColor=#00FFFF;strokeWidth=2;fontColor=#000000;" parent="1" vertex="1">
          <mxGeometry x="1700" y="1836" width="200" height="140" as="geometry" />
        </mxCell>
        <mxCell id="HfboubUgEW3dS0zUGy0d-6" value="&lt;div style=&quot;font-size: 8px;&quot; align=&quot;left&quot;&gt;&lt;div style=&quot;font-size: 8px;&quot; align=&quot;left&quot;&gt;imm(31:0)&lt;/div&gt;&lt;/div&gt;&lt;div style=&quot;font-size: 8px;&quot; align=&quot;left&quot;&gt;&lt;div style=&quot;font-size: 8px;&quot; align=&quot;left&quot;&gt;&lt;font style=&quot;font-size: 8px;&quot;&gt;rs2_data(31:0)&lt;/font&gt;&lt;/div&gt;&lt;div style=&quot;font-size: 8px;&quot; align=&quot;left&quot;&gt;&lt;div style=&quot;font-size: 8px;&quot; align=&quot;left&quot;&gt;&lt;font style=&quot;font-size: 8px;&quot;&gt;rs1_data(31:0)&lt;/font&gt;&lt;/div&gt;&lt;/div&gt;&lt;div style=&quot;font-size: 8px;&quot; align=&quot;left&quot;&gt;&lt;font style=&quot;font-size: 8px;&quot;&gt;ram_management_ctrl(3:0)&lt;/font&gt;&lt;/div&gt;&lt;div style=&quot;font-size: 8px;&quot; align=&quot;left&quot;&gt;i_data_from_ram(31:0)&lt;br&gt;&lt;/div&gt;&lt;/div&gt;" style="text;html=1;strokeColor=none;fillColor=none;align=left;verticalAlign=middle;whiteSpace=wrap;rounded=0;fontColor=#000000;" parent="1" vertex="1">
          <mxGeometry x="1701" y="1866" width="100" height="51" as="geometry" />
        </mxCell>
        <mxCell id="HfboubUgEW3dS0zUGy0d-7" value="RAM_MANAGEMENT" style="text;html=1;strokeColor=none;fillColor=none;align=center;verticalAlign=middle;whiteSpace=wrap;rounded=0;fontColor=#000000;" parent="1" vertex="1">
          <mxGeometry x="1700" y="1840" width="200" height="16" as="geometry" />
        </mxCell>
        <mxCell id="HfboubUgEW3dS0zUGy0d-8" value="&lt;div style=&quot;font-size: 8px;&quot; align=&quot;right&quot;&gt;&lt;font style=&quot;font-size: 8px;&quot;&gt;rd_data(31:0)&lt;/font&gt;&lt;font style=&quot;font-size: 8px;&quot;&gt;&lt;/font&gt;&lt;/div&gt;&lt;div style=&quot;font-size: 8px;&quot; align=&quot;right&quot;&gt;&lt;font style=&quot;font-size: 8px;&quot;&gt;write_enable&lt;/font&gt;&lt;font style=&quot;font-size: 8px;&quot;&gt;&lt;/font&gt;&lt;div style=&quot;font-size: 8px;&quot; align=&quot;right&quot;&gt;&lt;font style=&quot;font-size: 8px;&quot;&gt;raddr&lt;/font&gt; - integer&lt;br&gt;&lt;/div&gt;&lt;/div&gt;&lt;div style=&quot;font-size: 8px;&quot; align=&quot;right&quot;&gt;&lt;font style=&quot;font-size: 8px;&quot;&gt;&lt;/font&gt;&lt;div style=&quot;font-size: 8px;&quot; align=&quot;right&quot;&gt;&lt;font style=&quot;font-size: 8px;&quot;&gt;waddr - integer&lt;br&gt;&lt;/font&gt;&lt;/div&gt;&lt;font style=&quot;font-size: 8px;&quot;&gt;&lt;/font&gt;&lt;/div&gt;&lt;div style=&quot;font-size: 8px;&quot; align=&quot;right&quot;&gt;&lt;font style=&quot;font-size: 8px;&quot;&gt;byte_enable(3:0)&lt;/font&gt;&lt;/div&gt;&lt;div style=&quot;font-size: 8px;&quot; align=&quot;right&quot;&gt;&lt;font style=&quot;font-size: 8px;&quot;&gt;data(31:0)&lt;/font&gt;&lt;/div&gt;" style="text;html=1;strokeColor=none;fillColor=none;align=right;verticalAlign=middle;whiteSpace=wrap;rounded=0;fontColor=#000000;" parent="1" vertex="1">
          <mxGeometry x="1831" y="1865" width="68" height="63" as="geometry" />
        </mxCell>
        <mxCell id="3gstqMGpocRiPtmlr0DV-15" value="" style="rounded=0;whiteSpace=wrap;html=1;fillColor=none;strokeColor=#B57E51;strokeWidth=2;fontColor=#000000;" parent="1" vertex="1">
          <mxGeometry x="837" y="812" width="220" height="140" as="geometry" />
        </mxCell>
        <mxCell id="3gstqMGpocRiPtmlr0DV-16" value="&lt;div style=&quot;font-size: 8px;&quot; align=&quot;left&quot;&gt;&lt;font style=&quot;font-size: 8px;&quot;&gt;clk&lt;/font&gt;&lt;/div&gt;&lt;div style=&quot;font-size: 8px;&quot; align=&quot;left&quot;&gt;&lt;font style=&quot;font-size: 8px;&quot;&gt;raddr&lt;/font&gt; - integer&lt;br&gt;&lt;/div&gt;&lt;div style=&quot;font-size: 8px;&quot; align=&quot;left&quot;&gt;&lt;font style=&quot;font-size: 8px;&quot;&gt;waddr - integer&lt;br&gt;&lt;/font&gt;&lt;/div&gt;&lt;div style=&quot;font-size: 8px;&quot; align=&quot;left&quot;&gt;&lt;font style=&quot;font-size: 8px;&quot;&gt;we&lt;br&gt;&lt;/font&gt;&lt;/div&gt;&lt;div style=&quot;font-size: 8px;&quot; align=&quot;left&quot;&gt;&lt;font style=&quot;font-size: 8px;&quot;&gt;wdata(31:0)&lt;/font&gt;&lt;/div&gt;&lt;div style=&quot;font-size: 8px;&quot; align=&quot;left&quot;&gt;&lt;font style=&quot;font-size: 8px;&quot;&gt;be(3:0)&lt;br&gt;&lt;/font&gt;&lt;/div&gt;" style="text;html=1;strokeColor=none;fillColor=none;align=left;verticalAlign=middle;whiteSpace=wrap;rounded=0;fontColor=#000000;" parent="1" vertex="1">
          <mxGeometry x="838" y="836" width="70" height="61" as="geometry" />
        </mxCell>
        <mxCell id="3gstqMGpocRiPtmlr0DV-17" value="RAM" style="text;html=1;strokeColor=none;fillColor=none;align=center;verticalAlign=middle;whiteSpace=wrap;rounded=0;fontColor=#000000;" parent="1" vertex="1">
          <mxGeometry x="837" y="816" width="220" height="20" as="geometry" />
        </mxCell>
        <mxCell id="3gstqMGpocRiPtmlr0DV-18" value="&lt;div style=&quot;font-size: 8px;&quot; align=&quot;right&quot;&gt;&lt;font style=&quot;font-size: 8px;&quot;&gt;q(31:0)&lt;/font&gt;&lt;/div&gt;" style="text;html=1;strokeColor=none;fillColor=none;align=right;verticalAlign=middle;whiteSpace=wrap;rounded=0;fontColor=#000000;" parent="1" vertex="1">
          <mxGeometry x="1025" y="836" width="31" height="16" as="geometry" />
        </mxCell>
        <mxCell id="4SwvQqKv90205dTWW9fl-2" value="&lt;div style=&quot;font-size: 16px;&quot; align=&quot;right&quot;&gt;&lt;font style=&quot;font-size: 16px;&quot;&gt;&lt;b&gt;&lt;font style=&quot;font-size: 16px;&quot;&gt;core_write_enable&lt;/font&gt;&lt;/b&gt;&lt;/font&gt;&lt;/div&gt;&lt;div style=&quot;font-size: 16px;&quot; align=&quot;right&quot;&gt;&lt;font style=&quot;font-size: 16px;&quot;&gt;&lt;b&gt;&lt;font style=&quot;font-size: 16px;&quot;&gt;core_addr_read - integer&lt;br&gt;&lt;/font&gt;&lt;/b&gt;&lt;/font&gt;&lt;/div&gt;&lt;div style=&quot;font-size: 16px;&quot; align=&quot;right&quot;&gt;&lt;font style=&quot;font-size: 16px;&quot;&gt;&lt;b&gt;&lt;font style=&quot;font-size: 16px;&quot;&gt;core_addr_write - integer&lt;br&gt;&lt;/font&gt;&lt;/b&gt;&lt;/font&gt;&lt;/div&gt;&lt;div style=&quot;font-size: 16px;&quot; align=&quot;right&quot;&gt;&lt;font style=&quot;font-size: 16px;&quot;&gt;&lt;b&gt;&lt;font style=&quot;font-size: 16px;&quot;&gt;core_byte_enable(3:0)&lt;/font&gt;&lt;/b&gt;&lt;/font&gt;&lt;/div&gt;&lt;div style=&quot;font-size: 16px;&quot; align=&quot;right&quot;&gt;&lt;font style=&quot;font-size: 16px;&quot;&gt;&lt;b&gt;&lt;font style=&quot;font-size: 16px;&quot;&gt;&lt;font style=&quot;font-size: 16px;&quot;&gt;&lt;b&gt;&lt;font style=&quot;font-size: 16px;&quot;&gt;core_data_write&lt;/font&gt;&lt;/b&gt;&lt;/font&gt;(31:0)&lt;br&gt;&lt;/font&gt;&lt;/b&gt;&lt;/font&gt;&lt;/div&gt;" style="text;html=1;strokeColor=none;fillColor=none;align=right;verticalAlign=middle;whiteSpace=wrap;rounded=0;" parent="1" vertex="1">
          <mxGeometry x="2481" y="1131" width="195" height="117" as="geometry" />
        </mxCell>
        <mxCell id="6XQH-ZIWkHCpFrcvFsyq-4" value="&lt;font style=&quot;font-size: 16px;&quot;&gt;&lt;b&gt;&lt;font style=&quot;font-size: 16px;&quot;&gt;ram_q&lt;/font&gt;&lt;/b&gt;&lt;/font&gt;" style="text;html=1;strokeColor=none;fillColor=none;align=center;verticalAlign=middle;whiteSpace=wrap;rounded=0;" parent="1" vertex="1">
          <mxGeometry x="1108" y="835" width="55" height="20" as="geometry" />
        </mxCell>
        <mxCell id="6XQH-ZIWkHCpFrcvFsyq-6" value="&lt;font style=&quot;font-size: 26px;&quot;&gt;&lt;b&gt;CORE&lt;/b&gt;&lt;/font&gt;" style="text;html=1;strokeColor=none;fillColor=none;align=center;verticalAlign=middle;whiteSpace=wrap;rounded=0;fontColor=#000000;" parent="1" vertex="1">
          <mxGeometry x="1235" y="1103" width="60" height="20" as="geometry" />
        </mxCell>
        <mxCell id="Ia1AkE6VqReakgYp9iSG-2" value="" style="rounded=0;whiteSpace=wrap;html=1;fillColor=none;strokeColor=#B5B500;strokeWidth=2;fontColor=#000000;" parent="1" vertex="1">
          <mxGeometry x="1700" y="2056" width="200" height="140" as="geometry" />
        </mxCell>
        <mxCell id="Ia1AkE6VqReakgYp9iSG-3" value="&lt;div style=&quot;font-size: 8px;&quot; align=&quot;left&quot;&gt;&lt;div style=&quot;font-size: 8px;&quot; align=&quot;left&quot;&gt;&lt;font style=&quot;font-size: 8px;&quot;&gt;rs2_data(31:0)&lt;/font&gt;&lt;/div&gt;&lt;font style=&quot;font-size: 8px;&quot;&gt;&lt;/font&gt;&lt;/div&gt;&lt;div style=&quot;font-size: 8px;&quot; align=&quot;left&quot;&gt;&lt;font style=&quot;font-size: 8px;&quot;&gt;rs1_data(31:0)&lt;br&gt;&lt;/font&gt;&lt;/div&gt;&lt;div style=&quot;font-size: 8px;&quot; align=&quot;left&quot;&gt;&lt;div style=&quot;font-size: 8px;&quot; align=&quot;left&quot;&gt;&lt;font style=&quot;font-size: 8px;&quot;&gt;branch_ctrl(2:0)&lt;/font&gt;&lt;/div&gt;&lt;font style=&quot;font-size: 8px;&quot;&gt;&lt;/font&gt;&lt;/div&gt;" style="text;html=1;strokeColor=none;fillColor=none;align=left;verticalAlign=middle;whiteSpace=wrap;rounded=0;fontColor=#000000;" parent="1" vertex="1">
          <mxGeometry x="1701" y="2086" width="62" height="30" as="geometry" />
        </mxCell>
        <mxCell id="Ia1AkE6VqReakgYp9iSG-4" value="BRANCH_INSTRUCTIONS" style="text;html=1;strokeColor=none;fillColor=none;align=center;verticalAlign=middle;whiteSpace=wrap;rounded=0;fontColor=#000000;" parent="1" vertex="1">
          <mxGeometry x="1700" y="2061" width="200" height="20" as="geometry" />
        </mxCell>
        <mxCell id="Ia1AkE6VqReakgYp9iSG-5" value="&lt;font style=&quot;font-size: 8px;&quot;&gt;branch_result&lt;br&gt;&lt;/font&gt;" style="text;html=1;strokeColor=none;fillColor=none;align=right;verticalAlign=middle;whiteSpace=wrap;rounded=0;fontColor=#000000;" parent="1" vertex="1">
          <mxGeometry x="1840" y="2086" width="58" height="14" as="geometry" />
        </mxCell>
        <mxCell id="UCRnNolcWxTBBTJZz29h-6" value="" style="endArrow=none;html=1;rounded=0;strokeWidth=2;strokeColor=#FF9999;" parent="1" edge="1">
          <mxGeometry width="50" height="50" relative="1" as="geometry">
            <mxPoint x="381" y="1671" as="sourcePoint" />
            <mxPoint x="473" y="1671" as="targetPoint" />
          </mxGeometry>
        </mxCell>
        <mxCell id="UCRnNolcWxTBBTJZz29h-7" value="" style="endArrow=none;html=1;rounded=0;strokeWidth=2;strokeColor=#FF9999;" parent="1" edge="1">
          <mxGeometry width="50" height="50" relative="1" as="geometry">
            <mxPoint x="381" y="1662" as="sourcePoint" />
            <mxPoint x="481" y="1662" as="targetPoint" />
          </mxGeometry>
        </mxCell>
        <mxCell id="UCRnNolcWxTBBTJZz29h-8" value="" style="endArrow=none;html=1;rounded=0;strokeWidth=2;strokeColor=#FF9999;" parent="1" edge="1">
          <mxGeometry width="50" height="50" relative="1" as="geometry">
            <mxPoint x="381" y="1652" as="sourcePoint" />
            <mxPoint x="490" y="1652" as="targetPoint" />
          </mxGeometry>
        </mxCell>
        <mxCell id="UCRnNolcWxTBBTJZz29h-9" value="" style="endArrow=classic;html=1;rounded=0;endSize=1;startSize=3;strokeWidth=2;strokeColor=#FF9999;" parent="1" edge="1">
          <mxGeometry width="50" height="50" relative="1" as="geometry">
            <mxPoint x="472" y="1794" as="sourcePoint" />
            <mxPoint x="579" y="1794" as="targetPoint" />
          </mxGeometry>
        </mxCell>
        <mxCell id="UCRnNolcWxTBBTJZz29h-10" value="" style="endArrow=classic;html=1;rounded=0;strokeWidth=2;endSize=1;strokeColor=#FF9999;" parent="1" edge="1">
          <mxGeometry width="50" height="50" relative="1" as="geometry">
            <mxPoint x="480" y="1785" as="sourcePoint" />
            <mxPoint x="579" y="1785" as="targetPoint" />
          </mxGeometry>
        </mxCell>
        <mxCell id="UCRnNolcWxTBBTJZz29h-11" value="" style="endArrow=classic;html=1;rounded=0;endSize=1;strokeWidth=2;strokeColor=#FF9999;" parent="1" edge="1">
          <mxGeometry width="50" height="50" relative="1" as="geometry">
            <mxPoint x="489" y="1775" as="sourcePoint" />
            <mxPoint x="579" y="1775" as="targetPoint" />
          </mxGeometry>
        </mxCell>
        <mxCell id="UCRnNolcWxTBBTJZz29h-12" value="" style="endArrow=none;html=1;rounded=0;strokeWidth=2;strokeColor=#FF9999;" parent="1" edge="1">
          <mxGeometry width="50" height="50" relative="1" as="geometry">
            <mxPoint x="489" y="1775" as="sourcePoint" />
            <mxPoint x="489" y="1652" as="targetPoint" />
          </mxGeometry>
        </mxCell>
        <mxCell id="UCRnNolcWxTBBTJZz29h-13" value="" style="endArrow=none;html=1;rounded=0;strokeWidth=2;strokeColor=#FF9999;" parent="1" edge="1">
          <mxGeometry width="50" height="50" relative="1" as="geometry">
            <mxPoint x="480" y="1785" as="sourcePoint" />
            <mxPoint x="480" y="1662" as="targetPoint" />
          </mxGeometry>
        </mxCell>
        <mxCell id="UCRnNolcWxTBBTJZz29h-14" value="" style="endArrow=none;html=1;rounded=0;strokeWidth=2;strokeColor=#FF9999;" parent="1" edge="1">
          <mxGeometry width="50" height="50" relative="1" as="geometry">
            <mxPoint x="472" y="1794" as="sourcePoint" />
            <mxPoint x="472" y="1671" as="targetPoint" />
          </mxGeometry>
        </mxCell>
        <mxCell id="UCRnNolcWxTBBTJZz29h-17" value="" style="endArrow=classic;html=1;rounded=0;endSize=1;strokeWidth=2;strokeColor=#FF3399;" parent="1" edge="1">
          <mxGeometry width="50" height="50" relative="1" as="geometry">
            <mxPoint x="144" y="1618" as="sourcePoint" />
            <mxPoint x="179" y="1618" as="targetPoint" />
          </mxGeometry>
        </mxCell>
        <mxCell id="UCRnNolcWxTBBTJZz29h-18" value="" style="endArrow=classic;html=1;rounded=0;endSize=1;strokeWidth=2;strokeColor=#007FFF;" parent="1" edge="1">
          <mxGeometry width="50" height="50" relative="1" as="geometry">
            <mxPoint x="842" y="1435" as="sourcePoint" />
            <mxPoint x="899" y="1435" as="targetPoint" />
          </mxGeometry>
        </mxCell>
        <mxCell id="UCRnNolcWxTBBTJZz29h-19" value="" style="endArrow=classic;html=1;rounded=0;endSize=1;strokeWidth=2;strokeColor=#FFCC99;" parent="1" edge="1">
          <mxGeometry width="50" height="50" relative="1" as="geometry">
            <mxPoint x="842" y="1453" as="sourcePoint" />
            <mxPoint x="899" y="1453" as="targetPoint" />
          </mxGeometry>
        </mxCell>
        <mxCell id="UCRnNolcWxTBBTJZz29h-20" value="" style="endArrow=classic;html=1;rounded=0;endSize=1;strokeWidth=2;strokeColor=#666600;" parent="1" edge="1">
          <mxGeometry width="50" height="50" relative="1" as="geometry">
            <mxPoint x="1235" y="1249" as="sourcePoint" />
            <mxPoint x="1289" y="1249" as="targetPoint" />
          </mxGeometry>
        </mxCell>
        <mxCell id="UCRnNolcWxTBBTJZz29h-21" value="" style="endArrow=classic;html=1;rounded=0;endSize=1;strokeWidth=2;strokeColor=#FFCC99;" parent="1" edge="1">
          <mxGeometry width="50" height="50" relative="1" as="geometry">
            <mxPoint x="876" y="1663" as="sourcePoint" />
            <mxPoint x="1299" y="1663" as="targetPoint" />
          </mxGeometry>
        </mxCell>
        <mxCell id="UCRnNolcWxTBBTJZz29h-22" value="" style="endArrow=classic;html=1;rounded=0;endSize=1;strokeWidth=2;strokeColor=#FFCC99;" parent="1" edge="1">
          <mxGeometry width="50" height="50" relative="1" as="geometry">
            <mxPoint x="885" y="1673" as="sourcePoint" />
            <mxPoint x="1299" y="1673" as="targetPoint" />
          </mxGeometry>
        </mxCell>
        <mxCell id="UCRnNolcWxTBBTJZz29h-23" value="" style="endArrow=classic;html=1;rounded=0;endSize=1;strokeWidth=2;strokeColor=#007FFF;" parent="1" edge="1">
          <mxGeometry width="50" height="50" relative="1" as="geometry">
            <mxPoint x="1251" y="1682" as="sourcePoint" />
            <mxPoint x="1299" y="1682" as="targetPoint" />
          </mxGeometry>
        </mxCell>
        <mxCell id="UCRnNolcWxTBBTJZz29h-24" value="" style="endArrow=classic;html=1;rounded=0;endSize=1;strokeWidth=2;strokeColor=#666600;" parent="1" edge="1">
          <mxGeometry width="50" height="50" relative="1" as="geometry">
            <mxPoint x="1236" y="1692" as="sourcePoint" />
            <mxPoint x="1299" y="1692" as="targetPoint" />
          </mxGeometry>
        </mxCell>
        <mxCell id="UCRnNolcWxTBBTJZz29h-25" value="" style="endArrow=classic;html=1;rounded=0;endSize=1;strokeWidth=2;strokeColor=#FF9999;" parent="1" edge="1">
          <mxGeometry width="50" height="50" relative="1" as="geometry">
            <mxPoint x="924" y="1701" as="sourcePoint" />
            <mxPoint x="1299" y="1701" as="targetPoint" />
          </mxGeometry>
        </mxCell>
        <mxCell id="UCRnNolcWxTBBTJZz29h-26" value="" style="endArrow=classic;html=1;rounded=0;endSize=1;strokeWidth=2;strokeColor=#FF9999;" parent="1" edge="1">
          <mxGeometry width="50" height="50" relative="1" as="geometry">
            <mxPoint x="912" y="1712" as="sourcePoint" />
            <mxPoint x="1299" y="1711" as="targetPoint" />
          </mxGeometry>
        </mxCell>
        <mxCell id="UCRnNolcWxTBBTJZz29h-27" value="" style="endArrow=classic;html=1;rounded=0;endSize=1;strokeWidth=2;strokeColor=#FF9999;" parent="1" edge="1">
          <mxGeometry width="50" height="50" relative="1" as="geometry">
            <mxPoint x="900" y="1720" as="sourcePoint" />
            <mxPoint x="1299" y="1720" as="targetPoint" />
          </mxGeometry>
        </mxCell>
        <mxCell id="UCRnNolcWxTBBTJZz29h-28" value="" style="endArrow=classic;html=1;rounded=0;endSize=1;strokeWidth=2;strokeColor=#B57E51;" parent="1" edge="1">
          <mxGeometry width="50" height="50" relative="1" as="geometry">
            <mxPoint x="1638" y="1913" as="sourcePoint" />
            <mxPoint x="1698" y="1913" as="targetPoint" />
          </mxGeometry>
        </mxCell>
        <mxCell id="UCRnNolcWxTBBTJZz29h-30" value="" style="endArrow=classic;html=1;rounded=0;endSize=1;strokeWidth=2;exitX=1.002;exitY=0.298;exitDx=0;exitDy=0;exitPerimeter=0;strokeColor=#666600;" parent="1" source="WBGVOQ_4j9fBxjr6cf3C-39" edge="1">
          <mxGeometry width="50" height="50" relative="1" as="geometry">
            <mxPoint x="1104" y="1433" as="sourcePoint" />
            <mxPoint x="1699" y="1433" as="targetPoint" />
          </mxGeometry>
        </mxCell>
        <mxCell id="UCRnNolcWxTBBTJZz29h-31" value="" style="endArrow=classic;html=1;rounded=0;endSize=1;strokeWidth=2;strokeColor=#FFFF66;" parent="1" edge="1">
          <mxGeometry width="50" height="50" relative="1" as="geometry">
            <mxPoint x="1575" y="1452" as="sourcePoint" />
            <mxPoint x="1699" y="1452" as="targetPoint" />
          </mxGeometry>
        </mxCell>
        <mxCell id="UCRnNolcWxTBBTJZz29h-32" value="" style="endArrow=classic;html=1;rounded=0;endSize=1;strokeWidth=2;strokeColor=#FFCC99;" parent="1" edge="1">
          <mxGeometry width="50" height="50" relative="1" as="geometry">
            <mxPoint x="1140" y="1442" as="sourcePoint" />
            <mxPoint x="1699" y="1442" as="targetPoint" />
          </mxGeometry>
        </mxCell>
        <mxCell id="UCRnNolcWxTBBTJZz29h-33" value="" style="endArrow=classic;html=1;rounded=0;endSize=1;strokeWidth=2;strokeColor=#FFCC99;" parent="1" edge="1">
          <mxGeometry width="50" height="50" relative="1" as="geometry">
            <mxPoint x="1584" y="1653" as="sourcePoint" />
            <mxPoint x="1699" y="1653" as="targetPoint" />
          </mxGeometry>
        </mxCell>
        <mxCell id="UCRnNolcWxTBBTJZz29h-34" value="" style="endArrow=classic;html=1;rounded=0;endSize=1;strokeWidth=2;exitX=1.002;exitY=0.333;exitDx=0;exitDy=0;exitPerimeter=0;strokeColor=#FFFF66;" parent="1" source="Nq3vy76Jur3wy4Glu-vh-9" edge="1">
          <mxGeometry width="50" height="50" relative="1" as="geometry">
            <mxPoint x="1660" y="1663" as="sourcePoint" />
            <mxPoint x="1699" y="1663" as="targetPoint" />
          </mxGeometry>
        </mxCell>
        <mxCell id="UCRnNolcWxTBBTJZz29h-35" value="" style="endArrow=classic;html=1;rounded=0;endSize=1;strokeWidth=2;strokeColor=#FF9999;" parent="1" edge="1">
          <mxGeometry width="50" height="50" relative="1" as="geometry">
            <mxPoint x="1660" y="1672" as="sourcePoint" />
            <mxPoint x="1699" y="1672" as="targetPoint" />
          </mxGeometry>
        </mxCell>
        <mxCell id="UCRnNolcWxTBBTJZz29h-39" value="" style="endArrow=classic;html=1;rounded=0;endSize=1;strokeWidth=2;strokeColor=#FF9999;" parent="1" edge="1">
          <mxGeometry width="50" height="50" relative="1" as="geometry">
            <mxPoint x="1659" y="1874" as="sourcePoint" />
            <mxPoint x="1699" y="1874" as="targetPoint" />
          </mxGeometry>
        </mxCell>
        <mxCell id="UCRnNolcWxTBBTJZz29h-40" value="" style="endArrow=classic;html=1;rounded=0;endSize=1;strokeWidth=2;strokeColor=#FFFF66;" parent="1" edge="1">
          <mxGeometry width="50" height="50" relative="1" as="geometry">
            <mxPoint x="1584" y="1884" as="sourcePoint" />
            <mxPoint x="1699" y="1884" as="targetPoint" />
          </mxGeometry>
        </mxCell>
        <mxCell id="UCRnNolcWxTBBTJZz29h-41" value="" style="endArrow=classic;html=1;rounded=0;endSize=1;strokeWidth=2;strokeColor=#FFFF66;" parent="1" edge="1">
          <mxGeometry width="50" height="50" relative="1" as="geometry">
            <mxPoint x="1575" y="1893" as="sourcePoint" />
            <mxPoint x="1699" y="1893" as="targetPoint" />
          </mxGeometry>
        </mxCell>
        <mxCell id="UCRnNolcWxTBBTJZz29h-42" value="" style="endArrow=classic;html=1;rounded=0;endSize=1;strokeWidth=2;strokeColor=#FFCC99;" parent="1" edge="1">
          <mxGeometry width="50" height="50" relative="1" as="geometry">
            <mxPoint x="897" y="1902" as="sourcePoint" />
            <mxPoint x="1699" y="1902" as="targetPoint" />
          </mxGeometry>
        </mxCell>
        <mxCell id="UCRnNolcWxTBBTJZz29h-47" value="" style="endArrow=classic;html=1;rounded=0;endSize=1;strokeWidth=2;strokeColor=#FFFF66;" parent="1" edge="1">
          <mxGeometry width="50" height="50" relative="1" as="geometry">
            <mxPoint x="1583" y="2093" as="sourcePoint" />
            <mxPoint x="1699" y="2093" as="targetPoint" />
          </mxGeometry>
        </mxCell>
        <mxCell id="UCRnNolcWxTBBTJZz29h-48" value="" style="endArrow=classic;html=1;rounded=0;endSize=1;strokeWidth=2;strokeColor=#FFFF66;" parent="1" edge="1">
          <mxGeometry width="50" height="50" relative="1" as="geometry">
            <mxPoint x="1575" y="2103" as="sourcePoint" />
            <mxPoint x="1699" y="2103" as="targetPoint" />
          </mxGeometry>
        </mxCell>
        <mxCell id="UCRnNolcWxTBBTJZz29h-49" value="" style="endArrow=classic;html=1;rounded=0;endSize=1;strokeWidth=2;strokeColor=#FFCC99;" parent="1" edge="1">
          <mxGeometry width="50" height="50" relative="1" as="geometry">
            <mxPoint x="876" y="2111" as="sourcePoint" />
            <mxPoint x="1699" y="2112" as="targetPoint" />
          </mxGeometry>
        </mxCell>
        <mxCell id="UCRnNolcWxTBBTJZz29h-50" value="" style="endArrow=classic;html=1;rounded=0;endSize=1;strokeWidth=2;strokeColor=#99FF33;" parent="1" edge="1">
          <mxGeometry width="50" height="50" relative="1" as="geometry">
            <mxPoint x="2051" y="1543" as="sourcePoint" />
            <mxPoint x="2099" y="1543" as="targetPoint" />
          </mxGeometry>
        </mxCell>
        <mxCell id="UCRnNolcWxTBBTJZz29h-51" value="" style="endArrow=classic;html=1;rounded=0;endSize=1;strokeWidth=2;strokeColor=#FFCC99;" parent="1" edge="1">
          <mxGeometry width="50" height="50" relative="1" as="geometry">
            <mxPoint x="1149" y="1553" as="sourcePoint" />
            <mxPoint x="2099" y="1553" as="targetPoint" />
          </mxGeometry>
        </mxCell>
        <mxCell id="UCRnNolcWxTBBTJZz29h-52" value="" style="endArrow=classic;html=1;rounded=0;endSize=1;strokeWidth=2;strokeColor=#00CCCC;" parent="1" edge="1">
          <mxGeometry width="50" height="50" relative="1" as="geometry">
            <mxPoint x="2051" y="1562" as="sourcePoint" />
            <mxPoint x="2099" y="1562" as="targetPoint" />
          </mxGeometry>
        </mxCell>
        <mxCell id="WR6nl4WWlnXiocAi59Dy-3" value="" style="endArrow=none;html=1;rounded=0;strokeWidth=2;strokeColor=#FFCC99;" parent="1" edge="1">
          <mxGeometry width="50" height="50" relative="1" as="geometry">
            <mxPoint x="843" y="1776" as="sourcePoint" />
            <mxPoint x="843" y="1452" as="targetPoint" />
          </mxGeometry>
        </mxCell>
        <mxCell id="WR6nl4WWlnXiocAi59Dy-4" value="" style="endArrow=none;html=1;rounded=0;strokeWidth=2;strokeColor=#FFCC99;" parent="1" edge="1">
          <mxGeometry width="50" height="50" relative="1" as="geometry">
            <mxPoint x="780" y="1775" as="sourcePoint" />
            <mxPoint x="843" y="1775" as="targetPoint" />
          </mxGeometry>
        </mxCell>
        <mxCell id="WR6nl4WWlnXiocAi59Dy-10" value="" style="endArrow=none;html=1;rounded=0;strokeWidth=2;strokeColor=#FFCC99;" parent="1" edge="1">
          <mxGeometry width="50" height="50" relative="1" as="geometry">
            <mxPoint x="780" y="1813" as="sourcePoint" />
            <mxPoint x="878" y="1813" as="targetPoint" />
          </mxGeometry>
        </mxCell>
        <mxCell id="WR6nl4WWlnXiocAi59Dy-11" value="" style="endArrow=none;html=1;rounded=0;strokeWidth=2;strokeColor=#FFCC99;" parent="1" edge="1">
          <mxGeometry width="50" height="50" relative="1" as="geometry">
            <mxPoint x="780" y="1823" as="sourcePoint" />
            <mxPoint x="885" y="1823" as="targetPoint" />
          </mxGeometry>
        </mxCell>
        <mxCell id="WR6nl4WWlnXiocAi59Dy-12" value="" style="endArrow=none;html=1;rounded=0;strokeWidth=2;strokeColor=#FFCC99;" parent="1" edge="1">
          <mxGeometry width="50" height="50" relative="1" as="geometry">
            <mxPoint x="886" y="1824" as="sourcePoint" />
            <mxPoint x="886" y="1672" as="targetPoint" />
          </mxGeometry>
        </mxCell>
        <mxCell id="WR6nl4WWlnXiocAi59Dy-13" value="" style="endArrow=none;html=1;rounded=0;strokeWidth=2;strokeColor=#FFCC99;" parent="1" edge="1">
          <mxGeometry width="50" height="50" relative="1" as="geometry">
            <mxPoint x="877" y="1814" as="sourcePoint" />
            <mxPoint x="877" y="1662" as="targetPoint" />
          </mxGeometry>
        </mxCell>
        <mxCell id="WR6nl4WWlnXiocAi59Dy-15" value="" style="endArrow=none;html=1;rounded=0;strokeWidth=2;strokeColor=#FFCC99;" parent="1" edge="1">
          <mxGeometry width="50" height="50" relative="1" as="geometry">
            <mxPoint x="780" y="1785" as="sourcePoint" />
            <mxPoint x="852" y="1785" as="targetPoint" />
          </mxGeometry>
        </mxCell>
        <mxCell id="WR6nl4WWlnXiocAi59Dy-17" value="" style="endArrow=none;html=1;rounded=0;strokeWidth=2;strokeColor=#FFCC99;" parent="1" edge="1">
          <mxGeometry width="50" height="50" relative="1" as="geometry">
            <mxPoint x="780" y="1795" as="sourcePoint" />
            <mxPoint x="861" y="1795" as="targetPoint" />
          </mxGeometry>
        </mxCell>
        <mxCell id="WR6nl4WWlnXiocAi59Dy-18" value="" style="endArrow=none;html=1;rounded=0;strokeWidth=2;strokeColor=#FFCC99;" parent="1" edge="1">
          <mxGeometry width="50" height="50" relative="1" as="geometry">
            <mxPoint x="780" y="1804" as="sourcePoint" />
            <mxPoint x="867" y="1804" as="targetPoint" />
          </mxGeometry>
        </mxCell>
        <mxCell id="WR6nl4WWlnXiocAi59Dy-19" value="" style="endArrow=none;html=1;rounded=0;strokeWidth=2;strokeColor=#FFCC99;" parent="1" edge="1">
          <mxGeometry width="50" height="50" relative="1" as="geometry">
            <mxPoint x="852" y="1786" as="sourcePoint" />
            <mxPoint x="852" y="1556" as="targetPoint" />
          </mxGeometry>
        </mxCell>
        <mxCell id="WR6nl4WWlnXiocAi59Dy-20" value="" style="endArrow=none;html=1;rounded=0;strokeWidth=2;strokeColor=#FFCC99;" parent="1" edge="1">
          <mxGeometry width="50" height="50" relative="1" as="geometry">
            <mxPoint x="860" y="1796" as="sourcePoint" />
            <mxPoint x="860" y="1565" as="targetPoint" />
          </mxGeometry>
        </mxCell>
        <mxCell id="WR6nl4WWlnXiocAi59Dy-21" value="" style="endArrow=none;html=1;rounded=0;strokeWidth=2;strokeColor=#FFCC99;" parent="1" edge="1">
          <mxGeometry width="50" height="50" relative="1" as="geometry">
            <mxPoint x="868" y="1805" as="sourcePoint" />
            <mxPoint x="868" y="1575" as="targetPoint" />
          </mxGeometry>
        </mxCell>
        <mxCell id="WR6nl4WWlnXiocAi59Dy-22" value="" style="endArrow=none;html=1;rounded=0;strokeWidth=2;strokeColor=#FFCC99;" parent="1" edge="1">
          <mxGeometry width="50" height="50" relative="1" as="geometry">
            <mxPoint x="851" y="1556" as="sourcePoint" />
            <mxPoint x="1140" y="1556" as="targetPoint" />
          </mxGeometry>
        </mxCell>
        <mxCell id="WR6nl4WWlnXiocAi59Dy-23" value="" style="endArrow=none;html=1;rounded=0;strokeWidth=2;strokeColor=#FFCC99;" parent="1" edge="1">
          <mxGeometry width="50" height="50" relative="1" as="geometry">
            <mxPoint x="1140" y="1557" as="sourcePoint" />
            <mxPoint x="1140" y="1441" as="targetPoint" />
          </mxGeometry>
        </mxCell>
        <mxCell id="WR6nl4WWlnXiocAi59Dy-24" value="" style="endArrow=none;html=1;rounded=0;strokeWidth=2;strokeColor=#FFCC99;" parent="1" edge="1">
          <mxGeometry width="50" height="50" relative="1" as="geometry">
            <mxPoint x="859" y="1565" as="sourcePoint" />
            <mxPoint x="1149" y="1565" as="targetPoint" />
          </mxGeometry>
        </mxCell>
        <mxCell id="WR6nl4WWlnXiocAi59Dy-25" value="" style="endArrow=none;html=1;rounded=0;strokeWidth=2;strokeColor=#FFCC99;" parent="1" edge="1">
          <mxGeometry width="50" height="50" relative="1" as="geometry">
            <mxPoint x="1149" y="1566" as="sourcePoint" />
            <mxPoint x="1149" y="1552" as="targetPoint" />
          </mxGeometry>
        </mxCell>
        <mxCell id="WR6nl4WWlnXiocAi59Dy-26" value="" style="endArrow=none;html=1;rounded=0;strokeWidth=2;strokeColor=#FFCC99;" parent="1" edge="1">
          <mxGeometry width="50" height="50" relative="1" as="geometry">
            <mxPoint x="1158" y="1562" as="sourcePoint" />
            <mxPoint x="1521" y="1562" as="targetPoint" />
          </mxGeometry>
        </mxCell>
        <mxCell id="WR6nl4WWlnXiocAi59Dy-27" value="" style="endArrow=none;html=1;rounded=0;strokeWidth=2;strokeColor=#FFCC99;" parent="1" edge="1">
          <mxGeometry width="50" height="50" relative="1" as="geometry">
            <mxPoint x="1584" y="1654" as="sourcePoint" />
            <mxPoint x="1584" y="1561" as="targetPoint" />
          </mxGeometry>
        </mxCell>
        <mxCell id="WR6nl4WWlnXiocAi59Dy-28" value="" style="endArrow=none;html=1;rounded=0;strokeWidth=2;strokeColor=#FFCC99;" parent="1" edge="1">
          <mxGeometry width="50" height="50" relative="1" as="geometry">
            <mxPoint x="1159" y="1575" as="sourcePoint" />
            <mxPoint x="1159" y="1561" as="targetPoint" />
          </mxGeometry>
        </mxCell>
        <mxCell id="WR6nl4WWlnXiocAi59Dy-29" value="" style="endArrow=none;html=1;rounded=0;strokeWidth=2;strokeColor=#FFCC99;" parent="1" edge="1">
          <mxGeometry width="50" height="50" relative="1" as="geometry">
            <mxPoint x="867" y="1576" as="sourcePoint" />
            <mxPoint x="1160" y="1576" as="targetPoint" />
          </mxGeometry>
        </mxCell>
        <mxCell id="WR6nl4WWlnXiocAi59Dy-32" value="" style="endArrow=none;html=1;rounded=0;strokeWidth=2;strokeColor=#FFFF66;" parent="1" edge="1">
          <mxGeometry width="50" height="50" relative="1" as="geometry">
            <mxPoint x="1500" y="1653" as="sourcePoint" />
            <mxPoint x="1575" y="1653" as="targetPoint" />
          </mxGeometry>
        </mxCell>
        <mxCell id="WR6nl4WWlnXiocAi59Dy-33" value="" style="endArrow=none;html=1;rounded=0;strokeWidth=2;strokeColor=#FFFF66;" parent="1" edge="1">
          <mxGeometry width="50" height="50" relative="1" as="geometry">
            <mxPoint x="1575" y="1654" as="sourcePoint" />
            <mxPoint x="1575" y="1451" as="targetPoint" />
          </mxGeometry>
        </mxCell>
        <mxCell id="WR6nl4WWlnXiocAi59Dy-34" value="" style="endArrow=none;html=1;rounded=0;strokeWidth=2;strokeColor=#FFCC99;" parent="1" edge="1">
          <mxGeometry width="50" height="50" relative="1" as="geometry">
            <mxPoint x="1520" y="1562" as="sourcePoint" />
            <mxPoint x="1584" y="1562" as="targetPoint" />
          </mxGeometry>
        </mxCell>
        <mxCell id="WR6nl4WWlnXiocAi59Dy-35" value="" style="endArrow=none;html=1;rounded=0;strokeWidth=2;strokeColor=#99FF33;" parent="1" edge="1">
          <mxGeometry width="50" height="50" relative="1" as="geometry">
            <mxPoint x="1901" y="1437" as="sourcePoint" />
            <mxPoint x="2052" y="1437" as="targetPoint" />
          </mxGeometry>
        </mxCell>
        <mxCell id="WR6nl4WWlnXiocAi59Dy-36" value="" style="endArrow=none;html=1;rounded=0;strokeWidth=2;strokeColor=#99FF33;" parent="1" edge="1">
          <mxGeometry width="50" height="50" relative="1" as="geometry">
            <mxPoint x="2051" y="1544" as="sourcePoint" />
            <mxPoint x="2051" y="1436" as="targetPoint" />
          </mxGeometry>
        </mxCell>
        <mxCell id="WR6nl4WWlnXiocAi59Dy-37" value="" style="endArrow=none;html=1;rounded=0;strokeWidth=2;strokeColor=#00CCCC;" parent="1" edge="1">
          <mxGeometry width="50" height="50" relative="1" as="geometry">
            <mxPoint x="1901" y="1653" as="sourcePoint" />
            <mxPoint x="2052" y="1653" as="targetPoint" />
          </mxGeometry>
        </mxCell>
        <mxCell id="WR6nl4WWlnXiocAi59Dy-38" value="" style="endArrow=none;html=1;rounded=0;strokeWidth=2;strokeColor=#00CCCC;" parent="1" edge="1">
          <mxGeometry width="50" height="50" relative="1" as="geometry">
            <mxPoint x="2052" y="1653" as="sourcePoint" />
            <mxPoint x="2052" y="1562" as="targetPoint" />
          </mxGeometry>
        </mxCell>
        <mxCell id="WR6nl4WWlnXiocAi59Dy-40" value="" style="endArrow=none;html=1;rounded=0;strokeWidth=2;strokeColor=#FFCC99;" parent="1" edge="1">
          <mxGeometry width="50" height="50" relative="1" as="geometry">
            <mxPoint x="780" y="1843" as="sourcePoint" />
            <mxPoint x="876" y="1843" as="targetPoint" />
          </mxGeometry>
        </mxCell>
        <mxCell id="WR6nl4WWlnXiocAi59Dy-41" value="" style="endArrow=none;html=1;rounded=0;strokeWidth=2;strokeColor=#FFCC99;" parent="1" edge="1">
          <mxGeometry width="50" height="50" relative="1" as="geometry">
            <mxPoint x="877" y="2111" as="sourcePoint" />
            <mxPoint x="877" y="1842" as="targetPoint" />
          </mxGeometry>
        </mxCell>
        <mxCell id="WR6nl4WWlnXiocAi59Dy-43" value="" style="shape=waypoint;sketch=0;fillStyle=solid;size=6;pointerEvents=1;points=[];fillColor=none;resizable=0;rotatable=0;perimeter=centerPerimeter;snapToPoint=1;strokeWidth=1;strokeColor=#FFFF66;" parent="1" vertex="1">
          <mxGeometry x="1565" y="1643" width="20" height="20" as="geometry" />
        </mxCell>
        <mxCell id="WR6nl4WWlnXiocAi59Dy-45" value="" style="endArrow=none;html=1;rounded=0;strokeWidth=2;strokeColor=#FFFF66;" parent="1" edge="1">
          <mxGeometry width="50" height="50" relative="1" as="geometry">
            <mxPoint x="1575" y="2104" as="sourcePoint" />
            <mxPoint x="1575" y="1655" as="targetPoint" />
          </mxGeometry>
        </mxCell>
        <mxCell id="WR6nl4WWlnXiocAi59Dy-46" value="" style="shape=waypoint;sketch=0;fillStyle=solid;size=6;pointerEvents=1;points=[];fillColor=none;resizable=0;rotatable=0;perimeter=centerPerimeter;snapToPoint=1;strokeWidth=1;strokeColor=#FFFF66;" parent="1" vertex="1">
          <mxGeometry x="1574" y="1653" width="20" height="20" as="geometry" />
        </mxCell>
        <mxCell id="WR6nl4WWlnXiocAi59Dy-47" value="" style="endArrow=none;html=1;rounded=0;strokeWidth=2;strokeColor=#FFFF66;" parent="1" edge="1">
          <mxGeometry width="50" height="50" relative="1" as="geometry">
            <mxPoint x="1584" y="2093" as="sourcePoint" />
            <mxPoint x="1584" y="1663" as="targetPoint" />
          </mxGeometry>
        </mxCell>
        <mxCell id="WR6nl4WWlnXiocAi59Dy-48" value="" style="shape=waypoint;sketch=0;fillStyle=solid;size=6;pointerEvents=1;points=[];fillColor=none;resizable=0;rotatable=0;perimeter=centerPerimeter;snapToPoint=1;strokeWidth=1;strokeColor=#FFFF66;" parent="1" vertex="1">
          <mxGeometry x="1574" y="1874" width="20" height="20" as="geometry" />
        </mxCell>
        <mxCell id="WR6nl4WWlnXiocAi59Dy-49" value="" style="shape=waypoint;sketch=0;fillStyle=solid;size=6;pointerEvents=1;points=[];fillColor=none;resizable=0;rotatable=0;perimeter=centerPerimeter;snapToPoint=1;strokeWidth=1;strokeColor=#FFFF66;" parent="1" vertex="1">
          <mxGeometry x="1565" y="1883" width="20" height="20" as="geometry" />
        </mxCell>
        <mxCell id="WR6nl4WWlnXiocAi59Dy-52" value="" style="endArrow=none;html=1;rounded=0;strokeWidth=2;strokeColor=#FFCC99;" parent="1" edge="1">
          <mxGeometry width="50" height="50" relative="1" as="geometry">
            <mxPoint x="780" y="1833" as="sourcePoint" />
            <mxPoint x="897" y="1833" as="targetPoint" />
          </mxGeometry>
        </mxCell>
        <mxCell id="WR6nl4WWlnXiocAi59Dy-54" value="" style="endArrow=none;html=1;rounded=0;strokeWidth=2;strokeColor=#FFCC99;" parent="1" edge="1">
          <mxGeometry width="50" height="50" relative="1" as="geometry">
            <mxPoint x="896" y="1903" as="sourcePoint" />
            <mxPoint x="896" y="1833" as="targetPoint" />
          </mxGeometry>
        </mxCell>
        <mxCell id="WR6nl4WWlnXiocAi59Dy-56" value="" style="endArrow=none;html=1;rounded=0;strokeWidth=2;strokeColor=#007FFF;" parent="1" edge="1">
          <mxGeometry width="50" height="50" relative="1" as="geometry">
            <mxPoint x="843" y="1373" as="sourcePoint" />
            <mxPoint x="2317" y="1373" as="targetPoint" />
          </mxGeometry>
        </mxCell>
        <mxCell id="WR6nl4WWlnXiocAi59Dy-57" value="" style="endArrow=none;html=1;rounded=0;strokeWidth=2;strokeColor=#007FFF;" parent="1" edge="1">
          <mxGeometry width="50" height="50" relative="1" as="geometry">
            <mxPoint x="843" y="1435" as="sourcePoint" />
            <mxPoint x="843" y="1372" as="targetPoint" />
          </mxGeometry>
        </mxCell>
        <mxCell id="WR6nl4WWlnXiocAi59Dy-58" value="" style="endArrow=none;html=1;rounded=0;strokeWidth=2;strokeColor=#007FFF;" parent="1" edge="1">
          <mxGeometry width="50" height="50" relative="1" as="geometry">
            <mxPoint x="2300" y="1548" as="sourcePoint" />
            <mxPoint x="2316" y="1548" as="targetPoint" />
          </mxGeometry>
        </mxCell>
        <mxCell id="WR6nl4WWlnXiocAi59Dy-59" value="" style="endArrow=none;html=1;rounded=0;strokeWidth=2;strokeColor=#007FFF;" parent="1" edge="1">
          <mxGeometry width="50" height="50" relative="1" as="geometry">
            <mxPoint x="2317" y="1549" as="sourcePoint" />
            <mxPoint x="2316" y="1373" as="targetPoint" />
          </mxGeometry>
        </mxCell>
        <mxCell id="WR6nl4WWlnXiocAi59Dy-60" value="" style="endArrow=none;html=1;rounded=0;strokeWidth=2;strokeColor=#007FFF;" parent="1" edge="1">
          <mxGeometry width="50" height="50" relative="1" as="geometry">
            <mxPoint x="1251" y="1683" as="sourcePoint" />
            <mxPoint x="1251" y="1373" as="targetPoint" />
          </mxGeometry>
        </mxCell>
        <mxCell id="WR6nl4WWlnXiocAi59Dy-61" value="" style="endArrow=none;html=1;rounded=0;strokeWidth=2;strokeColor=#666600;" parent="1" edge="1">
          <mxGeometry width="50" height="50" relative="1" as="geometry">
            <mxPoint x="1236" y="1693" as="sourcePoint" />
            <mxPoint x="1236" y="1433" as="targetPoint" />
          </mxGeometry>
        </mxCell>
        <mxCell id="WR6nl4WWlnXiocAi59Dy-62" value="" style="shape=waypoint;sketch=0;fillStyle=solid;size=6;pointerEvents=1;points=[];fillColor=none;resizable=0;rotatable=0;perimeter=centerPerimeter;snapToPoint=1;strokeColor=#666600;" parent="1" vertex="1">
          <mxGeometry x="1226" y="1423" width="20" height="20" as="geometry" />
        </mxCell>
        <mxCell id="WR6nl4WWlnXiocAi59Dy-63" value="" style="shape=waypoint;sketch=0;fillStyle=solid;size=6;pointerEvents=1;points=[];fillColor=none;resizable=0;rotatable=0;perimeter=centerPerimeter;snapToPoint=1;strokeColor=#007FFF;" parent="1" vertex="1">
          <mxGeometry x="1241" y="1363" width="20" height="20" as="geometry" />
        </mxCell>
        <mxCell id="HHthe8FDpFu81GJ2ntWf-2" value="" style="endArrow=none;html=1;rounded=0;strokeWidth=2;strokeColor=#FF9999;" parent="1" edge="1">
          <mxGeometry width="50" height="50" relative="1" as="geometry">
            <mxPoint x="380" y="1614" as="sourcePoint" />
            <mxPoint x="826" y="1614" as="targetPoint" />
          </mxGeometry>
        </mxCell>
        <mxCell id="HHthe8FDpFu81GJ2ntWf-3" value="" style="endArrow=none;html=1;rounded=0;strokeWidth=2;strokeColor=#FF9999;" parent="1" edge="1">
          <mxGeometry width="50" height="50" relative="1" as="geometry">
            <mxPoint x="380" y="1623" as="sourcePoint" />
            <mxPoint x="924" y="1623" as="targetPoint" />
          </mxGeometry>
        </mxCell>
        <mxCell id="HHthe8FDpFu81GJ2ntWf-4" value="" style="endArrow=none;html=1;rounded=0;strokeWidth=2;strokeColor=#FF9999;" parent="1" edge="1">
          <mxGeometry width="50" height="50" relative="1" as="geometry">
            <mxPoint x="380" y="1633" as="sourcePoint" />
            <mxPoint x="912" y="1633" as="targetPoint" />
          </mxGeometry>
        </mxCell>
        <mxCell id="HHthe8FDpFu81GJ2ntWf-5" value="" style="endArrow=none;html=1;rounded=0;strokeWidth=2;strokeColor=#FF9999;" parent="1" edge="1">
          <mxGeometry width="50" height="50" relative="1" as="geometry">
            <mxPoint x="380" y="1643" as="sourcePoint" />
            <mxPoint x="902" y="1643" as="targetPoint" />
          </mxGeometry>
        </mxCell>
        <mxCell id="HHthe8FDpFu81GJ2ntWf-6" value="" style="endArrow=none;html=1;rounded=0;strokeWidth=2;strokeColor=#FF9999;" parent="1" edge="1">
          <mxGeometry width="50" height="50" relative="1" as="geometry">
            <mxPoint x="825" y="1615" as="sourcePoint" />
            <mxPoint x="825" y="1363" as="targetPoint" />
          </mxGeometry>
        </mxCell>
        <mxCell id="HHthe8FDpFu81GJ2ntWf-7" value="" style="endArrow=none;html=1;rounded=0;strokeWidth=2;strokeColor=#FF9999;" parent="1" edge="1">
          <mxGeometry width="50" height="50" relative="1" as="geometry">
            <mxPoint x="825" y="1364" as="sourcePoint" />
            <mxPoint x="1661" y="1364" as="targetPoint" />
          </mxGeometry>
        </mxCell>
        <mxCell id="HHthe8FDpFu81GJ2ntWf-8" value="" style="endArrow=none;html=1;rounded=0;strokeWidth=2;strokeColor=#FF9999;" parent="1" edge="1">
          <mxGeometry width="1610" height="1746" relative="1" as="geometry">
            <mxPoint x="1660" y="1874" as="sourcePoint" />
            <mxPoint x="1660" y="1363" as="targetPoint" />
          </mxGeometry>
        </mxCell>
        <mxCell id="HHthe8FDpFu81GJ2ntWf-9" value="" style="shape=waypoint;sketch=0;fillStyle=solid;size=6;pointerEvents=1;points=[];fillColor=none;resizable=0;rotatable=0;perimeter=centerPerimeter;snapToPoint=1;strokeColor=#FF9999;" parent="HHthe8FDpFu81GJ2ntWf-8" vertex="1">
          <mxGeometry x="1650" y="1662" width="20" height="20" as="geometry" />
        </mxCell>
        <mxCell id="HHthe8FDpFu81GJ2ntWf-10" value="" style="endArrow=none;html=1;rounded=0;strokeWidth=2;strokeColor=#FF9999;" parent="1" edge="1">
          <mxGeometry width="50" height="50" relative="1" as="geometry">
            <mxPoint x="924" y="1702" as="sourcePoint" />
            <mxPoint x="924" y="1622" as="targetPoint" />
          </mxGeometry>
        </mxCell>
        <mxCell id="HHthe8FDpFu81GJ2ntWf-11" value="" style="endArrow=none;html=1;rounded=0;strokeWidth=2;strokeColor=#FF9999;" parent="1" edge="1">
          <mxGeometry width="50" height="50" relative="1" as="geometry">
            <mxPoint x="913" y="1712" as="sourcePoint" />
            <mxPoint x="913" y="1632" as="targetPoint" />
          </mxGeometry>
        </mxCell>
        <mxCell id="HHthe8FDpFu81GJ2ntWf-12" value="" style="endArrow=none;html=1;rounded=0;strokeWidth=2;strokeColor=#FF9999;" parent="1" edge="1">
          <mxGeometry width="50" height="50" relative="1" as="geometry">
            <mxPoint x="901" y="1721" as="sourcePoint" />
            <mxPoint x="901" y="1643" as="targetPoint" />
          </mxGeometry>
        </mxCell>
        <mxCell id="HHthe8FDpFu81GJ2ntWf-13" value="" style="endArrow=none;html=1;rounded=0;strokeWidth=2;strokeColor=#666600;" parent="1" edge="1">
          <mxGeometry width="50" height="50" relative="1" as="geometry">
            <mxPoint x="1236" y="1426" as="sourcePoint" />
            <mxPoint x="1236" y="1248" as="targetPoint" />
          </mxGeometry>
        </mxCell>
        <mxCell id="HHthe8FDpFu81GJ2ntWf-14" value="" style="endArrow=none;html=1;rounded=0;strokeWidth=2;strokeColor=#B5B500;" parent="1" edge="1">
          <mxGeometry width="50" height="50" relative="1" as="geometry">
            <mxPoint x="1900" y="2096" as="sourcePoint" />
            <mxPoint x="1927" y="2096" as="targetPoint" />
          </mxGeometry>
        </mxCell>
        <mxCell id="HHthe8FDpFu81GJ2ntWf-15" value="" style="endArrow=none;html=1;rounded=0;strokeWidth=2;strokeColor=#B5B500;" parent="1" edge="1">
          <mxGeometry width="50" height="50" relative="1" as="geometry">
            <mxPoint x="1926" y="2216" as="sourcePoint" />
            <mxPoint x="1926" y="2096" as="targetPoint" />
          </mxGeometry>
        </mxCell>
        <mxCell id="HHthe8FDpFu81GJ2ntWf-16" value="" style="endArrow=none;html=1;rounded=0;strokeWidth=2;strokeColor=#B5B500;" parent="1" edge="1">
          <mxGeometry width="50" height="50" relative="1" as="geometry">
            <mxPoint x="540" y="2216" as="sourcePoint" />
            <mxPoint x="1927" y="2216" as="targetPoint" />
          </mxGeometry>
        </mxCell>
        <mxCell id="HHthe8FDpFu81GJ2ntWf-17" value="" style="endArrow=classic;html=1;rounded=0;strokeWidth=2;endSize=1;strokeColor=#B5B500;" parent="1" edge="1">
          <mxGeometry width="50" height="50" relative="1" as="geometry">
            <mxPoint x="540" y="1803" as="sourcePoint" />
            <mxPoint x="579" y="1803" as="targetPoint" />
          </mxGeometry>
        </mxCell>
        <mxCell id="HHthe8FDpFu81GJ2ntWf-18" value="" style="endArrow=none;html=1;rounded=0;strokeWidth=2;strokeColor=#B5B500;" parent="1" edge="1">
          <mxGeometry width="50" height="50" relative="1" as="geometry">
            <mxPoint x="540" y="2217" as="sourcePoint" />
            <mxPoint x="540" y="1802" as="targetPoint" />
          </mxGeometry>
        </mxCell>
        <mxCell id="HHthe8FDpFu81GJ2ntWf-21" value="" style="endArrow=none;html=1;rounded=0;strokeWidth=2;strokeColor=#FF3399;" parent="1" edge="1">
          <mxGeometry width="50" height="50" relative="1" as="geometry">
            <mxPoint x="144" y="1619" as="sourcePoint" />
            <mxPoint x="144" y="1189" as="targetPoint" />
          </mxGeometry>
        </mxCell>
        <mxCell id="HHthe8FDpFu81GJ2ntWf-22" value="" style="endArrow=none;html=1;rounded=0;strokeWidth=2;strokeColor=#FF3399;" parent="1" edge="1">
          <mxGeometry width="50" height="50" relative="1" as="geometry">
            <mxPoint x="144" y="1190" as="sourcePoint" />
            <mxPoint x="1512" y="1190" as="targetPoint" />
          </mxGeometry>
        </mxCell>
        <mxCell id="HHthe8FDpFu81GJ2ntWf-23" value="" style="endArrow=none;html=1;rounded=0;strokeWidth=2;strokeColor=#FF3399;" parent="1" edge="1">
          <mxGeometry width="50" height="50" relative="1" as="geometry">
            <mxPoint x="1490" y="1249" as="sourcePoint" />
            <mxPoint x="1512" y="1249" as="targetPoint" />
          </mxGeometry>
        </mxCell>
        <mxCell id="HHthe8FDpFu81GJ2ntWf-24" value="" style="endArrow=none;html=1;rounded=0;strokeWidth=2;strokeColor=#FF3399;" parent="1" edge="1">
          <mxGeometry width="50" height="50" relative="1" as="geometry">
            <mxPoint x="1512" y="1250" as="sourcePoint" />
            <mxPoint x="1512" y="1189" as="targetPoint" />
          </mxGeometry>
        </mxCell>
        <mxCell id="HHthe8FDpFu81GJ2ntWf-38" value="" style="endArrow=none;html=1;rounded=0;strokeWidth=2;strokeColor=#00FFFF;" parent="1" edge="1">
          <mxGeometry width="50" height="50" relative="1" as="geometry">
            <mxPoint x="1900" y="1884" as="sourcePoint" />
            <mxPoint x="2421" y="1884" as="targetPoint" />
          </mxGeometry>
        </mxCell>
        <mxCell id="HHthe8FDpFu81GJ2ntWf-39" value="" style="endArrow=none;html=1;rounded=0;strokeWidth=2;strokeColor=#00FFFF;" parent="1" edge="1">
          <mxGeometry width="50" height="50" relative="1" as="geometry">
            <mxPoint x="1900" y="1894" as="sourcePoint" />
            <mxPoint x="2433" y="1894" as="targetPoint" />
          </mxGeometry>
        </mxCell>
        <mxCell id="HHthe8FDpFu81GJ2ntWf-40" value="" style="endArrow=none;html=1;rounded=0;strokeWidth=2;strokeColor=#00FFFF;" parent="1" edge="1">
          <mxGeometry width="50" height="50" relative="1" as="geometry">
            <mxPoint x="1900" y="1904" as="sourcePoint" />
            <mxPoint x="2445" y="1904" as="targetPoint" />
          </mxGeometry>
        </mxCell>
        <mxCell id="HHthe8FDpFu81GJ2ntWf-41" value="" style="endArrow=none;html=1;rounded=0;strokeWidth=2;strokeColor=#00FFFF;" parent="1" edge="1">
          <mxGeometry width="50" height="50" relative="1" as="geometry">
            <mxPoint x="1900" y="1913" as="sourcePoint" />
            <mxPoint x="2457" y="1913" as="targetPoint" />
          </mxGeometry>
        </mxCell>
        <mxCell id="HHthe8FDpFu81GJ2ntWf-53" value="" style="endArrow=none;html=1;rounded=0;strokeWidth=2;strokeColor=#B57E51;" parent="1" edge="1">
          <mxGeometry width="50" height="50" relative="1" as="geometry">
            <mxPoint x="150" y="1913" as="sourcePoint" />
            <mxPoint x="1638" y="1913" as="targetPoint" />
          </mxGeometry>
        </mxCell>
        <mxCell id="HHthe8FDpFu81GJ2ntWf-54" value="&lt;div style=&quot;font-size: 16px;&quot; align=&quot;left&quot;&gt;&lt;font style=&quot;font-size: 16px;&quot;&gt;&lt;b&gt;&lt;font style=&quot;font-size: 16px;&quot;&gt;&lt;font style=&quot;font-size: 16px;&quot;&gt;&lt;b&gt;&lt;font style=&quot;font-size: 16px;&quot;&gt;ram_q(31:0)&lt;/font&gt;&lt;/b&gt;&lt;/font&gt;&lt;/font&gt;&lt;/b&gt;&lt;/font&gt;&lt;/div&gt;" style="text;html=1;strokeColor=none;fillColor=none;align=left;verticalAlign=middle;whiteSpace=wrap;rounded=0;" parent="1" vertex="1">
          <mxGeometry x="-223" y="1159" width="96" height="30" as="geometry" />
        </mxCell>
        <mxCell id="HHthe8FDpFu81GJ2ntWf-58" value="" style="endArrow=classic;html=1;rounded=0;strokeWidth=2;strokeColor=#B57E51;endSize=1;" parent="1" edge="1">
          <mxGeometry width="50" height="50" relative="1" as="geometry">
            <mxPoint x="1057" y="847" as="sourcePoint" />
            <mxPoint x="1104" y="847" as="targetPoint" />
          </mxGeometry>
        </mxCell>
        <mxCell id="HHthe8FDpFu81GJ2ntWf-59" value="" style="endArrow=classic;html=1;rounded=0;strokeWidth=2;strokeColor=#00FFFF;endSize=1;" parent="1" edge="1">
          <mxGeometry width="50" height="50" relative="1" as="geometry">
            <mxPoint x="789" y="854" as="sourcePoint" />
            <mxPoint x="836" y="854" as="targetPoint" />
          </mxGeometry>
        </mxCell>
        <mxCell id="HHthe8FDpFu81GJ2ntWf-60" value="" style="endArrow=classic;html=1;rounded=0;strokeWidth=2;strokeColor=#00FFFF;endSize=1;" parent="1" edge="1">
          <mxGeometry width="50" height="50" relative="1" as="geometry">
            <mxPoint x="777" y="864" as="sourcePoint" />
            <mxPoint x="836" y="864" as="targetPoint" />
          </mxGeometry>
        </mxCell>
        <mxCell id="HHthe8FDpFu81GJ2ntWf-61" value="" style="endArrow=classic;html=1;rounded=0;strokeWidth=2;strokeColor=#00FFFF;endSize=1;" parent="1" edge="1">
          <mxGeometry width="50" height="50" relative="1" as="geometry">
            <mxPoint x="777" y="873" as="sourcePoint" />
            <mxPoint x="836" y="873" as="targetPoint" />
          </mxGeometry>
        </mxCell>
        <mxCell id="HHthe8FDpFu81GJ2ntWf-62" value="" style="endArrow=classic;html=1;rounded=0;strokeWidth=2;strokeColor=#00FFFF;endSize=1;" parent="1" edge="1">
          <mxGeometry width="50" height="50" relative="1" as="geometry">
            <mxPoint x="789" y="883" as="sourcePoint" />
            <mxPoint x="836" y="883" as="targetPoint" />
          </mxGeometry>
        </mxCell>
        <mxCell id="HHthe8FDpFu81GJ2ntWf-63" value="&lt;div style=&quot;font-size: 16px;&quot; align=&quot;right&quot;&gt;&lt;font style=&quot;font-size: 16px;&quot;&gt;&lt;b&gt;&lt;font style=&quot;font-size: 16px;&quot;&gt;&lt;font style=&quot;font-size: 16px;&quot;&gt;&lt;b&gt;&lt;font style=&quot;font-size: 16px;&quot;&gt;core_addr_read&lt;/font&gt;&lt;/b&gt;&lt;/font&gt;&lt;/font&gt;&lt;/b&gt;&lt;/font&gt;&lt;/div&gt;&lt;div style=&quot;font-size: 16px;&quot; align=&quot;right&quot;&gt;&lt;font style=&quot;font-size: 16px;&quot;&gt;&lt;b&gt;&lt;font style=&quot;font-size: 16px;&quot;&gt;&lt;font style=&quot;font-size: 16px;&quot;&gt;&lt;b&gt;&lt;font style=&quot;font-size: 16px;&quot;&gt;core_addr_write&lt;/font&gt;&lt;/b&gt;&lt;/font&gt;&lt;br&gt;&lt;/font&gt;&lt;/b&gt;&lt;/font&gt;&lt;/div&gt;&lt;div style=&quot;font-size: 16px;&quot; align=&quot;right&quot;&gt;&lt;font style=&quot;font-size: 16px;&quot;&gt;&lt;b&gt;&lt;font style=&quot;font-size: 16px;&quot;&gt;core_write_enable&lt;/font&gt;&lt;/b&gt;&lt;/font&gt;&lt;/div&gt;&lt;div style=&quot;font-size: 16px;&quot; align=&quot;right&quot;&gt;&lt;font style=&quot;font-size: 16px;&quot;&gt;&lt;b&gt;&lt;font style=&quot;font-size: 16px;&quot;&gt;core_data_write&lt;/font&gt;&lt;/b&gt;&lt;/font&gt;&lt;/div&gt;&lt;div style=&quot;font-size: 16px;&quot; align=&quot;right&quot;&gt;&lt;font style=&quot;font-size: 16px;&quot;&gt;&lt;b&gt;&lt;font style=&quot;font-size: 16px;&quot;&gt;core_byte_enable&lt;br&gt;&lt;/font&gt;&lt;/b&gt;&lt;/font&gt;&lt;/div&gt;" style="text;html=1;strokeColor=none;fillColor=none;align=right;verticalAlign=middle;whiteSpace=wrap;rounded=0;" parent="1" vertex="1">
          <mxGeometry x="587" y="825" width="145" height="99" as="geometry" />
        </mxCell>
        <mxCell id="HHthe8FDpFu81GJ2ntWf-64" value="" style="endArrow=none;html=1;rounded=0;strokeWidth=2;strokeColor=#00FFFF;" parent="1" edge="1">
          <mxGeometry width="50" height="50" relative="1" as="geometry">
            <mxPoint x="732" y="840" as="sourcePoint" />
            <mxPoint x="789" y="840" as="targetPoint" />
          </mxGeometry>
        </mxCell>
        <mxCell id="HHthe8FDpFu81GJ2ntWf-65" value="" style="endArrow=none;html=1;rounded=0;strokeWidth=2;strokeColor=#00FFFF;" parent="1" edge="1">
          <mxGeometry width="50" height="50" relative="1" as="geometry">
            <mxPoint x="732" y="897" as="sourcePoint" />
            <mxPoint x="789" y="897" as="targetPoint" />
          </mxGeometry>
        </mxCell>
        <mxCell id="HHthe8FDpFu81GJ2ntWf-66" value="" style="endArrow=none;html=1;rounded=0;strokeWidth=2;strokeColor=#00FFFF;" parent="1" edge="1">
          <mxGeometry width="50" height="50" relative="1" as="geometry">
            <mxPoint x="732" y="879" as="sourcePoint" />
            <mxPoint x="777" y="879" as="targetPoint" />
          </mxGeometry>
        </mxCell>
        <mxCell id="HHthe8FDpFu81GJ2ntWf-67" value="" style="endArrow=none;html=1;rounded=0;strokeWidth=2;strokeColor=#00FFFF;" parent="1" edge="1">
          <mxGeometry width="50" height="50" relative="1" as="geometry">
            <mxPoint x="732" y="859" as="sourcePoint" />
            <mxPoint x="777" y="859" as="targetPoint" />
          </mxGeometry>
        </mxCell>
        <mxCell id="HHthe8FDpFu81GJ2ntWf-68" value="" style="endArrow=none;html=1;rounded=0;strokeWidth=2;strokeColor=#00FFFF;" parent="1" edge="1">
          <mxGeometry width="50" height="50" relative="1" as="geometry">
            <mxPoint x="789" y="855" as="sourcePoint" />
            <mxPoint x="789" y="839" as="targetPoint" />
          </mxGeometry>
        </mxCell>
        <mxCell id="HHthe8FDpFu81GJ2ntWf-69" value="" style="endArrow=none;html=1;rounded=0;strokeWidth=2;strokeColor=#00FFFF;" parent="1" edge="1">
          <mxGeometry width="50" height="50" relative="1" as="geometry">
            <mxPoint x="789" y="898" as="sourcePoint" />
            <mxPoint x="789" y="882" as="targetPoint" />
          </mxGeometry>
        </mxCell>
        <mxCell id="HHthe8FDpFu81GJ2ntWf-70" value="" style="endArrow=none;html=1;rounded=0;strokeWidth=2;strokeColor=#00FFFF;" parent="1" edge="1">
          <mxGeometry width="50" height="50" relative="1" as="geometry">
            <mxPoint x="777" y="880" as="sourcePoint" />
            <mxPoint x="777" y="872" as="targetPoint" />
          </mxGeometry>
        </mxCell>
        <mxCell id="HHthe8FDpFu81GJ2ntWf-71" value="" style="endArrow=none;html=1;rounded=0;strokeWidth=2;strokeColor=#00FFFF;" parent="1" edge="1">
          <mxGeometry width="50" height="50" relative="1" as="geometry">
            <mxPoint x="777" y="865" as="sourcePoint" />
            <mxPoint x="777" y="858" as="targetPoint" />
          </mxGeometry>
        </mxCell>
        <mxCell id="Z635ZdNETE6uqt0j0ldt-1" value="" style="endArrow=none;html=1;rounded=0;strokeWidth=2;strokeColor=#00FFFF;" parent="1" edge="1">
          <mxGeometry width="50" height="50" relative="1" as="geometry">
            <mxPoint x="1900" y="1923" as="sourcePoint" />
            <mxPoint x="2469" y="1923" as="targetPoint" />
          </mxGeometry>
        </mxCell>
        <mxCell id="Z635ZdNETE6uqt0j0ldt-3" value="" style="endArrow=none;html=1;rounded=0;strokeWidth=2;strokeColor=#00FFFF;" parent="1" edge="1">
          <mxGeometry width="50" height="50" relative="1" as="geometry">
            <mxPoint x="732" y="916" as="sourcePoint" />
            <mxPoint x="801" y="916" as="targetPoint" />
          </mxGeometry>
        </mxCell>
        <mxCell id="Z635ZdNETE6uqt0j0ldt-4" value="" style="endArrow=classic;html=1;rounded=0;strokeWidth=2;strokeColor=#00FFFF;endSize=1;" parent="1" edge="1">
          <mxGeometry width="50" height="50" relative="1" as="geometry">
            <mxPoint x="800" y="893" as="sourcePoint" />
            <mxPoint x="836" y="893" as="targetPoint" />
          </mxGeometry>
        </mxCell>
        <mxCell id="Z635ZdNETE6uqt0j0ldt-5" value="" style="endArrow=none;html=1;rounded=0;strokeWidth=2;strokeColor=#00FFFF;" parent="1" edge="1">
          <mxGeometry width="50" height="50" relative="1" as="geometry">
            <mxPoint x="801" y="917" as="sourcePoint" />
            <mxPoint x="801" y="892" as="targetPoint" />
          </mxGeometry>
        </mxCell>
        <mxCell id="jx6rWYBqz_MLAkpBDeUV-1" value="" style="endArrow=none;html=1;rounded=0;strokeWidth=2;strokeColor=#00FFFF;movable=1;resizable=1;rotatable=1;deletable=1;editable=1;locked=0;connectable=1;" parent="1" edge="1">
          <mxGeometry width="50" height="50" relative="1" as="geometry">
            <mxPoint x="1900" y="1875" as="sourcePoint" />
            <mxPoint x="1926" y="1875" as="targetPoint" />
          </mxGeometry>
        </mxCell>
        <mxCell id="jx6rWYBqz_MLAkpBDeUV-3" value="" style="endArrow=classic;html=1;rounded=0;strokeWidth=2;endSize=1;strokeColor=#00FFFF;" parent="1" edge="1">
          <mxGeometry width="50" height="50" relative="1" as="geometry">
            <mxPoint x="1253" y="1730" as="sourcePoint" />
            <mxPoint x="1299" y="1730" as="targetPoint" />
          </mxGeometry>
        </mxCell>
        <mxCell id="jx6rWYBqz_MLAkpBDeUV-4" value="" style="endArrow=none;html=1;rounded=0;strokeWidth=2;strokeColor=#00FFFF;" parent="1" edge="1">
          <mxGeometry width="50" height="50" relative="1" as="geometry">
            <mxPoint x="1253" y="1764" as="sourcePoint" />
            <mxPoint x="1253" y="1729" as="targetPoint" />
          </mxGeometry>
        </mxCell>
        <mxCell id="jx6rWYBqz_MLAkpBDeUV-5" value="" style="endArrow=none;html=1;rounded=0;strokeWidth=2;strokeColor=#00FFFF;" parent="1" edge="1">
          <mxGeometry width="50" height="50" relative="1" as="geometry">
            <mxPoint x="1252" y="1765" as="sourcePoint" />
            <mxPoint x="1925" y="1766" as="targetPoint" />
          </mxGeometry>
        </mxCell>
        <mxCell id="jx6rWYBqz_MLAkpBDeUV-7" value="" style="endArrow=none;html=1;rounded=0;strokeWidth=2;strokeColor=#00FFFF;" parent="1" edge="1">
          <mxGeometry width="50" height="50" relative="1" as="geometry">
            <mxPoint x="1925" y="1874" as="sourcePoint" />
            <mxPoint x="1925" y="1765" as="targetPoint" />
          </mxGeometry>
        </mxCell>
        <mxCell id="lknKL6QuMEld9YmjTeJl-1" value="&amp;nbsp;" style="rounded=0;whiteSpace=wrap;html=1;dashed=1;strokeWidth=2;fillColor=#BABABA;fillStyle=solid;opacity=20;" parent="1" vertex="1">
          <mxGeometry x="1400" y="747" width="552" height="234" as="geometry" />
        </mxCell>
        <mxCell id="lknKL6QuMEld9YmjTeJl-2" value="" style="rounded=0;whiteSpace=wrap;html=1;fillColor=none;strokeColor=#44ABA4;strokeWidth=2;fontColor=#000000;" parent="1" vertex="1">
          <mxGeometry x="1631" y="814" width="220" height="140" as="geometry" />
        </mxCell>
        <mxCell id="lknKL6QuMEld9YmjTeJl-3" value="&lt;div style=&quot;font-size: 8px;&quot; align=&quot;left&quot;&gt;&lt;font style=&quot;font-size: 8px;&quot;&gt;clk&lt;/font&gt;&lt;/div&gt;&lt;div style=&quot;font-size: 8px;&quot; align=&quot;left&quot;&gt;addr - integer&lt;br&gt;&lt;/div&gt;&lt;div style=&quot;font-size: 8px;&quot; align=&quot;left&quot;&gt;&lt;font style=&quot;font-size: 8px;&quot;&gt;wdata(31:0)&lt;br&gt;&lt;/font&gt;&lt;/div&gt;" style="text;html=1;strokeColor=none;fillColor=none;align=left;verticalAlign=middle;whiteSpace=wrap;rounded=0;fontColor=#000000;" parent="1" vertex="1">
          <mxGeometry x="1632" y="838" width="56" height="33" as="geometry" />
        </mxCell>
        <mxCell id="lknKL6QuMEld9YmjTeJl-4" value="GPIO" style="text;html=1;strokeColor=none;fillColor=none;align=center;verticalAlign=middle;whiteSpace=wrap;rounded=0;fontColor=#000000;" parent="1" vertex="1">
          <mxGeometry x="1631" y="818" width="220" height="20" as="geometry" />
        </mxCell>
        <mxCell id="lknKL6QuMEld9YmjTeJl-5" value="&lt;div style=&quot;font-size: 8px;&quot; align=&quot;right&quot;&gt;&lt;font style=&quot;font-size: 8px;&quot;&gt;gpio(3:0)&lt;/font&gt;&lt;/div&gt;" style="text;html=1;strokeColor=none;fillColor=none;align=right;verticalAlign=middle;whiteSpace=wrap;rounded=0;fontColor=#000000;" parent="1" vertex="1">
          <mxGeometry x="1814" y="841" width="36" height="12" as="geometry" />
        </mxCell>
        <mxCell id="lknKL6QuMEld9YmjTeJl-6" value="&lt;font style=&quot;font-size: 16px;&quot;&gt;&lt;b&gt;&lt;font style=&quot;font-size: 16px;&quot;&gt;gpio&lt;/font&gt;&lt;/b&gt;&lt;/font&gt;" style="text;html=1;strokeColor=none;fillColor=none;align=center;verticalAlign=middle;whiteSpace=wrap;rounded=0;" parent="1" vertex="1">
          <mxGeometry x="1899" y="833" width="35" height="24" as="geometry" />
        </mxCell>
        <mxCell id="lknKL6QuMEld9YmjTeJl-7" value="" style="endArrow=classic;html=1;rounded=0;strokeWidth=2;strokeColor=#44ABA4;endSize=1;" parent="1" edge="1">
          <mxGeometry width="50" height="50" relative="1" as="geometry">
            <mxPoint x="1851" y="849" as="sourcePoint" />
            <mxPoint x="1898" y="849" as="targetPoint" />
          </mxGeometry>
        </mxCell>
        <mxCell id="lknKL6QuMEld9YmjTeJl-8" value="" style="endArrow=classic;html=1;rounded=0;strokeWidth=2;strokeColor=#00FFFF;endSize=1;" parent="1" edge="1">
          <mxGeometry width="50" height="50" relative="1" as="geometry">
            <mxPoint x="1583" y="857" as="sourcePoint" />
            <mxPoint x="1630" y="857" as="targetPoint" />
          </mxGeometry>
        </mxCell>
        <mxCell id="lknKL6QuMEld9YmjTeJl-9" value="" style="endArrow=classic;html=1;rounded=0;strokeWidth=2;strokeColor=#00FFFF;endSize=1;" parent="1" edge="1">
          <mxGeometry width="50" height="50" relative="1" as="geometry">
            <mxPoint x="1583" y="866" as="sourcePoint" />
            <mxPoint x="1630" y="866" as="targetPoint" />
          </mxGeometry>
        </mxCell>
        <mxCell id="lknKL6QuMEld9YmjTeJl-12" value="&lt;div style=&quot;font-size: 16px;&quot; align=&quot;right&quot;&gt;&lt;font style=&quot;font-size: 16px;&quot;&gt;&lt;b&gt;&lt;font style=&quot;font-size: 16px;&quot;&gt;&lt;font style=&quot;font-size: 16px;&quot;&gt;&lt;b&gt;&lt;font style=&quot;font-size: 16px;&quot;&gt;core_addr_write&lt;/font&gt;&lt;/b&gt;&lt;/font&gt;&lt;/font&gt;&lt;/b&gt;&lt;/font&gt;&lt;/div&gt;&lt;div style=&quot;font-size: 16px;&quot; align=&quot;right&quot;&gt;&lt;font style=&quot;font-size: 16px;&quot;&gt;&lt;b&gt;&lt;font style=&quot;font-size: 16px;&quot;&gt;&lt;font style=&quot;font-size: 16px;&quot;&gt;&lt;b&gt;&lt;font style=&quot;font-size: 16px;&quot;&gt;core_data_write&lt;/font&gt;&lt;/b&gt;&lt;/font&gt;&lt;br&gt;&lt;/font&gt;&lt;/b&gt;&lt;/font&gt;&lt;/div&gt;" style="text;html=1;strokeColor=none;fillColor=none;align=right;verticalAlign=middle;whiteSpace=wrap;rounded=0;" parent="1" vertex="1">
          <mxGeometry x="1418" y="837" width="127" height="44" as="geometry" />
        </mxCell>
        <mxCell id="lknKL6QuMEld9YmjTeJl-13" value="" style="endArrow=none;html=1;rounded=0;strokeWidth=2;strokeColor=#00FFFF;" parent="1" edge="1">
          <mxGeometry width="50" height="50" relative="1" as="geometry">
            <mxPoint x="1547" y="852" as="sourcePoint" />
            <mxPoint x="1583" y="852" as="targetPoint" />
          </mxGeometry>
        </mxCell>
        <mxCell id="lknKL6QuMEld9YmjTeJl-16" value="" style="endArrow=none;html=1;rounded=0;strokeWidth=2;strokeColor=#00FFFF;" parent="1" edge="1">
          <mxGeometry width="50" height="50" relative="1" as="geometry">
            <mxPoint x="1547" y="871" as="sourcePoint" />
            <mxPoint x="1583" y="871" as="targetPoint" />
          </mxGeometry>
        </mxCell>
        <mxCell id="2V4Jv0Zd4fic7rHtye02-1" value="" style="endArrow=none;html=1;rounded=0;strokeWidth=2;strokeColor=#00FFFF;" parent="1" edge="1">
          <mxGeometry width="50" height="50" relative="1" as="geometry">
            <mxPoint x="1583" y="858" as="sourcePoint" />
            <mxPoint x="1583" y="851" as="targetPoint" />
          </mxGeometry>
        </mxCell>
        <mxCell id="2V4Jv0Zd4fic7rHtye02-2" value="" style="endArrow=none;html=1;rounded=0;strokeWidth=2;strokeColor=#00FFFF;" parent="1" edge="1">
          <mxGeometry width="50" height="50" relative="1" as="geometry">
            <mxPoint x="1583" y="872" as="sourcePoint" />
            <mxPoint x="1583" y="865" as="targetPoint" />
          </mxGeometry>
        </mxCell>
        <mxCell id="k1cbnF_5yYTtlvTHfuMY-7" value="" style="endArrow=none;html=1;rounded=0;edgeStyle=orthogonalEdgeStyle;strokeColor=#B57E51;strokeWidth=2;" parent="1" edge="1">
          <mxGeometry width="50" height="50" relative="1" as="geometry">
            <mxPoint x="151" y="1913" as="sourcePoint" />
            <mxPoint x="128" y="1178" as="targetPoint" />
          </mxGeometry>
        </mxCell>
        <mxCell id="k1cbnF_5yYTtlvTHfuMY-12" value="" style="line;strokeWidth=2;fillColor=#e1d5e7;align=left;verticalAlign=middle;spacingTop=-1;spacingLeft=3;spacingRight=3;rotatable=0;labelPosition=right;points=[];portConstraint=eastwest;strokeColor=#B57E51;" parent="1" vertex="1">
          <mxGeometry x="96" y="1173" width="33" height="8" as="geometry" />
        </mxCell>
        <mxCell id="k1cbnF_5yYTtlvTHfuMY-18" value="" style="shape=partialRectangle;whiteSpace=wrap;html=1;bottom=0;right=0;fillColor=none;strokeWidth=2;strokeColor=#00FFFF;" parent="1" vertex="1">
          <mxGeometry x="2457" y="1212" width="46" height="701" as="geometry" />
        </mxCell>
        <mxCell id="k1cbnF_5yYTtlvTHfuMY-19" value="" style="shape=partialRectangle;whiteSpace=wrap;html=1;bottom=0;right=0;fillColor=none;strokeWidth=2;strokeColor=#00FFFF;" parent="1" vertex="1">
          <mxGeometry x="2469" y="1230" width="38" height="693" as="geometry" />
        </mxCell>
        <mxCell id="k1cbnF_5yYTtlvTHfuMY-20" value="" style="shape=partialRectangle;whiteSpace=wrap;html=1;bottom=0;right=0;fillColor=none;strokeWidth=2;strokeColor=#00FFFF;" parent="1" vertex="1">
          <mxGeometry x="2445" y="1193" width="35" height="711" as="geometry" />
        </mxCell>
        <mxCell id="k1cbnF_5yYTtlvTHfuMY-21" value="" style="shape=partialRectangle;whiteSpace=wrap;html=1;bottom=0;right=0;fillColor=none;strokeWidth=2;strokeColor=#00FFFF;" parent="1" vertex="1">
          <mxGeometry x="2433" y="1173" width="50" height="721" as="geometry" />
        </mxCell>
        <mxCell id="k1cbnF_5yYTtlvTHfuMY-22" value="" style="shape=partialRectangle;whiteSpace=wrap;html=1;bottom=0;right=0;fillColor=none;strokeWidth=2;strokeColor=#00FFFF;" parent="1" vertex="1">
          <mxGeometry x="2421" y="1155" width="111" height="729" as="geometry" />
        </mxCell>
        <mxCell id="k1cbnF_5yYTtlvTHfuMY-34" value="&amp;nbsp;" style="text;whiteSpace=wrap;html=1;" parent="1" vertex="1">
          <mxGeometry x="810" y="1374" width="24" height="30" as="geometry" />
        </mxCell>
        <mxCell id="k1cbnF_5yYTtlvTHfuMY-39" value="&lt;font style=&quot;font-size: 26px;&quot;&gt;&lt;b&gt;RAM&lt;/b&gt;&lt;/font&gt;" style="text;html=1;strokeColor=none;fillColor=none;align=center;verticalAlign=middle;whiteSpace=wrap;rounded=0;fontColor=#000000;" parent="1" vertex="1">
          <mxGeometry x="860" y="766" width="60" height="20" as="geometry" />
        </mxCell>
        <mxCell id="k1cbnF_5yYTtlvTHfuMY-40" value="&lt;font style=&quot;font-size: 26px;&quot;&gt;&lt;b&gt;GPIO&lt;/b&gt;&lt;/font&gt;" style="text;html=1;strokeColor=none;fillColor=none;align=center;verticalAlign=middle;whiteSpace=wrap;rounded=0;fontColor=#000000;" parent="1" vertex="1">
          <mxGeometry x="1652" y="768" width="60" height="20" as="geometry" />
        </mxCell>
        <mxCell id="k1cbnF_5yYTtlvTHfuMY-41" value="&lt;div style=&quot;font-size: 16px;&quot; align=&quot;left&quot;&gt;&lt;b&gt;&lt;font style=&quot;font-size: 16px;&quot;&gt;clk&lt;/font&gt;&lt;/b&gt;&lt;/div&gt;&lt;div style=&quot;font-size: 16px;&quot; align=&quot;left&quot;&gt;&lt;b&gt;&lt;font style=&quot;font-size: 16px;&quot;&gt;core_data_read(31:0)&lt;/font&gt;&lt;/b&gt;&lt;/div&gt;" style="text;html=1;strokeColor=none;fillColor=none;align=left;verticalAlign=middle;whiteSpace=wrap;rounded=0;fontColor=#000000;" parent="1" vertex="1">
          <mxGeometry x="-68" y="1143" width="165" height="44" as="geometry" />
        </mxCell>
        <mxCell id="k1cbnF_5yYTtlvTHfuMY-43" value="" style="endArrow=classic;html=1;rounded=0;strokeWidth=2;strokeColor=#B57E51;endSize=1;" parent="1" edge="1">
          <mxGeometry width="50" height="50" relative="1" as="geometry">
            <mxPoint x="-128" y="1177" as="sourcePoint" />
            <mxPoint x="-81" y="1177" as="targetPoint" />
          </mxGeometry>
        </mxCell>
        <mxCell id="k1cbnF_5yYTtlvTHfuMY-46" value="&lt;div style=&quot;font-size: 26px;&quot; align=&quot;left&quot;&gt;&lt;font style=&quot;font-size: 26px;&quot;&gt;&lt;b&gt;&lt;font style=&quot;font-size: 26px;&quot;&gt;&lt;font style=&quot;font-size: 26px;&quot;&gt;&lt;b&gt;&lt;font style=&quot;font-size: 26px;&quot;&gt;rst&lt;br&gt;&lt;/font&gt;&lt;/b&gt;&lt;/font&gt;&lt;/font&gt;&lt;/b&gt;&lt;/font&gt;&lt;/div&gt;&lt;div style=&quot;font-size: 26px;&quot; align=&quot;left&quot;&gt;&lt;font style=&quot;font-size: 26px;&quot;&gt;&lt;b&gt;&lt;font style=&quot;font-size: 26px;&quot;&gt;&lt;font style=&quot;font-size: 26px;&quot;&gt;&lt;b&gt;&lt;font style=&quot;font-size: 26px;&quot;&gt;clk&lt;/font&gt;&lt;/b&gt;&lt;/font&gt;&lt;/font&gt;&lt;/b&gt;&lt;/font&gt;&lt;/div&gt;" style="text;html=1;strokeColor=none;fillColor=none;align=left;verticalAlign=middle;whiteSpace=wrap;rounded=0;" parent="1" vertex="1">
          <mxGeometry x="-714" y="486" width="48" height="58" as="geometry" />
        </mxCell>
        <mxCell id="k1cbnF_5yYTtlvTHfuMY-47" value="&lt;font size=&quot;1&quot;&gt;&lt;b style=&quot;font-size: 40px;&quot;&gt;MOZERPOL_DESIGN&lt;/b&gt;&lt;/font&gt;" style="text;html=1;strokeColor=none;fillColor=none;align=center;verticalAlign=middle;whiteSpace=wrap;rounded=0;fontColor=#000000;" parent="1" vertex="1">
          <mxGeometry x="1041" y="351" width="459" height="69" as="geometry" />
        </mxCell>
        <mxCell id="k1cbnF_5yYTtlvTHfuMY-50" value="&lt;div style=&quot;font-size: 26px;&quot; align=&quot;left&quot;&gt;&lt;font style=&quot;font-size: 26px;&quot;&gt;&lt;b&gt;&lt;font style=&quot;font-size: 26px;&quot;&gt;&lt;font style=&quot;font-size: 26px;&quot;&gt;&lt;b&gt;&lt;font style=&quot;font-size: 26px;&quot;&gt;gpio(3:0)&lt;/font&gt;&lt;/b&gt;&lt;/font&gt;&lt;/font&gt;&lt;/b&gt;&lt;/font&gt;&lt;/div&gt;" style="text;html=1;strokeColor=none;fillColor=none;align=left;verticalAlign=middle;whiteSpace=wrap;rounded=0;" parent="1" vertex="1">
          <mxGeometry x="3096" y="474" width="114" height="36" as="geometry" />
        </mxCell>
        <mxCell id="k1cbnF_5yYTtlvTHfuMY-51" value="" style="shape=curlyBracket;whiteSpace=wrap;html=1;rounded=1;flipH=1;labelPosition=right;verticalLabelPosition=middle;align=left;verticalAlign=middle;strokeWidth=3;" parent="1" vertex="1">
          <mxGeometry x="-668" y="480" width="20" height="72" as="geometry" />
        </mxCell>
        <mxCell id="k1cbnF_5yYTtlvTHfuMY-52" value="&lt;font style=&quot;font-size: 26px;&quot;&gt;mozerpol_design input ports&lt;/font&gt;" style="text;html=1;strokeColor=none;fillColor=none;align=center;verticalAlign=middle;whiteSpace=wrap;rounded=0;" parent="1" vertex="1">
          <mxGeometry x="-646" y="498" width="336" height="30" as="geometry" />
        </mxCell>
        <mxCell id="k1cbnF_5yYTtlvTHfuMY-53" value="" style="shape=curlyBracket;whiteSpace=wrap;html=1;rounded=1;labelPosition=left;verticalLabelPosition=middle;align=right;verticalAlign=middle;strokeWidth=3;" parent="1" vertex="1">
          <mxGeometry x="3075" y="473" width="20" height="48" as="geometry" />
        </mxCell>
        <mxCell id="k1cbnF_5yYTtlvTHfuMY-54" value="&lt;font style=&quot;font-size: 26px;&quot;&gt;mozerpol_design output port&lt;/font&gt;" style="text;html=1;strokeColor=none;fillColor=none;align=center;verticalAlign=middle;whiteSpace=wrap;rounded=0;" parent="1" vertex="1">
          <mxGeometry x="2727" y="479" width="345" height="30" as="geometry" />
        </mxCell>
        <mxCell id="GuCMF0NOM9EzWncVumZ_-4" value="" style="endArrow=classic;html=1;rounded=0;endSize=1;strokeWidth=2;strokeColor=#FFCC99;" edge="1" parent="1">
          <mxGeometry width="50" height="50" relative="1" as="geometry">
            <mxPoint x="834" y="1444" as="sourcePoint" />
            <mxPoint x="899" y="1444" as="targetPoint" />
          </mxGeometry>
        </mxCell>
        <mxCell id="GuCMF0NOM9EzWncVumZ_-6" value="" style="endArrow=none;html=1;rounded=0;strokeWidth=2;strokeColor=#FFCC99;" edge="1" parent="1">
          <mxGeometry width="50" height="50" relative="1" as="geometry">
            <mxPoint x="780" y="1766" as="sourcePoint" />
            <mxPoint x="834" y="1766" as="targetPoint" />
          </mxGeometry>
        </mxCell>
        <mxCell id="GuCMF0NOM9EzWncVumZ_-7" value="" style="endArrow=none;html=1;rounded=0;strokeWidth=2;strokeColor=#666600;" edge="1" parent="1">
          <mxGeometry width="50" height="50" relative="1" as="geometry">
            <mxPoint x="1100" y="1425" as="sourcePoint" />
            <mxPoint x="1236" y="1425" as="targetPoint" />
          </mxGeometry>
        </mxCell>
      </root>
    </mxGraphModel>
  </diagram>
</mxfile>
